<svg width="228" height="212" viewBox="0 0 228 212" fill="none" xmlns="http://www.w3.org/2000/svg">
<circle cx="114.101" cy="94.4904" r="94.0749" fill="#F8F9FB"/>
<mask id="mask0" mask-type="alpha" maskUnits="userSpaceOnUse" x="20" y="0" width="189" height="189">
<circle cx="114.101" cy="94.4904" r="94.0749" fill="#FEFEFF"/>
</mask>
<g mask="url(#mask0)">
<path d="M72.1011 66.7358L129.601 35.7358V69.042C129.601 69.7773 129.197 70.4534 128.55 70.8024L73.5756 100.441C72.9094 100.8 72.1011 100.318 72.1011 99.5606L72.1011 66.7358Z" fill="#C1C7D4"/>
<path d="M48.1011 91.5996C48.1011 88.2949 49.9121 85.2561 52.8187 83.6837L147.964 32.2117C157.958 26.805 170.101 34.0419 170.101 45.4049V220.352C170.101 221.821 169.296 223.171 168.004 223.87L55.4802 284.744C52.1487 286.546 48.1011 284.134 48.1011 280.346L48.1011 91.5996Z" fill="#DCDFE8"/>
<path d="M58.1011 95.7328C58.1011 92.4292 59.911 89.3911 62.8162 87.8183L155.34 37.7272C162.003 34.12 170.101 38.9444 170.101 46.5211V207.93C170.101 210.5 168.693 212.863 166.434 214.086L62.5294 270.338C60.5305 271.421 58.1011 269.973 58.1011 267.7L58.1011 95.7328Z" fill="#EDEEF3"/>
</g>
<g filter="url(#filter0_d)">
<path d="M158.289 44.693L71.1869 91.849C68.2817 93.4218 66.4717 96.4599 66.4717 99.7635L66.4717 167.043C66.4717 179.58 75.2179 190.419 87.4723 193.068C87.6526 193.107 87.8408 193.082 88.005 192.998L182.887 144.428C183.344 144.194 183.233 143.511 182.725 143.433C170.651 141.591 161.732 131.208 161.732 118.994V46.7438C161.732 44.9768 159.843 43.8517 158.289 44.693Z" fill="white"/>
</g>
<path d="M78.1011 69.9905L135.601 38.9905V72.2966C135.601 73.032 135.197 73.7081 134.55 74.057L79.5756 103.696C78.9094 104.055 78.1011 103.572 78.1011 102.815L78.1011 69.9905Z" fill="url(#paint0_linear)"/>
<path d="M78.1011 69.9905L135.601 38.9905V72.2966C135.601 73.032 135.197 73.7081 134.55 74.057L79.5756 103.696C78.9094 104.055 78.1011 103.572 78.1011 102.815L78.1011 69.9905Z" fill="url(#paint1_linear)"/>
<path d="M78.1011 129.167C78.1011 126.961 79.3118 124.933 81.2537 123.886L96.4274 115.705C98.4261 114.628 100.851 116.075 100.851 118.346V135.389C100.851 137.595 99.6403 139.623 97.6984 140.67L82.5247 148.851C80.526 149.928 78.1011 148.481 78.1011 146.21L78.1011 129.167Z" fill="#EDEEF3"/>
<path d="M106.913 110.99C106.913 110.265 107.305 109.597 107.938 109.244L150.354 85.5524C151.021 85.18 151.842 85.6619 151.842 86.4254V91.1977C151.842 91.9224 151.45 92.5904 150.817 92.9438L108.401 116.635C107.734 117.008 106.913 116.526 106.913 115.762V110.99Z" fill="url(#paint2_linear)"/>
<path d="M106.913 126.231C106.913 125.507 107.305 124.839 107.938 124.485L150.354 100.794C151.021 100.421 151.842 100.903 151.842 101.667V106.439C151.842 107.164 151.45 107.832 150.817 108.185L108.401 131.877C107.734 132.249 106.913 131.767 106.913 131.004V126.231Z" fill="url(#paint3_linear)"/>
<path d="M106.913 140.419C106.913 139.694 107.305 139.026 107.938 138.673L150.354 114.981C151.021 114.609 151.842 115.091 151.842 115.854V120.626C151.842 121.351 151.45 122.019 150.817 122.373L108.401 146.064C107.734 146.436 106.913 145.955 106.913 145.191V140.419Z" fill="url(#paint4_linear)"/>
<path d="M106.913 154.606C106.913 153.881 107.305 153.213 107.938 152.86L150.354 129.168C151.021 128.796 151.842 129.278 151.842 130.041V134.814C151.842 135.538 151.45 136.206 150.817 136.56L108.401 160.251C107.734 160.624 106.913 160.142 106.913 159.378V154.606Z" fill="url(#paint5_linear)"/>
<path d="M72.1011 66.7362L129.597 35.7358L135.601 38.9937L78.1135 69.9788L72.1011 66.7362Z" fill="url(#paint6_linear)"/>
<g filter="url(#filter1_di)">
<path d="M91.7468 78.4672C91.3467 78.6982 90.9928 78.8242 90.6849 78.8452C90.377 78.8602 90.1335 78.7717 89.9544 78.5797C89.7753 78.3817 89.6814 78.0712 89.6727 77.6482L90.7249 77.0407C90.7377 77.3287 90.8307 77.5252 91.0038 77.6302C91.1821 77.7262 91.4246 77.6857 91.7311 77.5087C91.9961 77.3557 92.206 77.1622 92.3607 76.9282C92.5154 76.6882 92.5917 76.4452 92.5897 76.1992C92.5875 75.9412 92.5157 75.7807 92.3743 75.7177C92.238 75.6517 92.0552 75.6397 91.8258 75.6818C91.5964 75.7238 91.3514 75.7688 91.0908 75.8168C90.6685 75.8918 90.3446 75.8618 90.119 75.7268C89.8986 75.5888 89.7866 75.3008 89.783 74.8628C89.7747 74.4938 89.8475 74.1323 90.0012 73.7784C90.1601 73.4154 90.3766 73.0824 90.6508 72.7794C90.925 72.4704 91.2413 72.2124 91.5999 72.0054C91.9636 71.7954 92.2838 71.6859 92.5604 71.6769C92.8422 71.6649 93.0622 71.7489 93.2203 71.9289C93.3836 72.1058 93.4719 72.3773 93.4854 72.7433L92.4176 73.3598C92.4106 73.1408 92.3336 72.9893 92.1867 72.9053C92.045 72.8123 91.8469 72.8393 91.5922 72.9863C91.374 73.1063 91.19 73.2758 91.0404 73.4948C90.8959 73.7048 90.8247 73.9328 90.8267 74.1788C90.8285 74.3888 90.887 74.5238 91.0023 74.5838C91.1176 74.6378 91.2744 74.6498 91.4725 74.6198C91.6707 74.5898 91.8974 74.5493 92.1528 74.4983C92.4239 74.4503 92.6718 74.4338 92.8964 74.4488C93.121 74.4638 93.3018 74.5523 93.4389 74.7143C93.5759 74.8702 93.646 75.1342 93.649 75.5062C93.6517 75.8362 93.5815 76.1842 93.4383 76.5502C93.2951 76.9162 93.0814 77.2687 92.797 77.6077C92.5126 77.9407 92.1625 78.2272 91.7468 78.4672ZM95.4691 76.2096L95.4174 69.9098L98.9794 67.8533L98.987 68.7803L96.4227 70.2608L96.4369 71.9887L98.7673 70.6432L98.7747 71.5432L96.4442 72.8887L96.4592 74.7066L99.0235 73.2261L99.0311 74.1531L95.4691 76.2096ZM100.56 73.2705L102.503 65.8188L103.626 65.1708L105.673 70.3185L104.613 70.9305L104.164 69.7246L102.036 70.9531L101.604 72.6675L100.56 73.2705ZM102.302 69.8956L103.884 68.9821L103.068 66.8222L102.302 69.8956ZM107.311 69.3728L107.259 63.073L109.262 61.9165C109.699 61.6645 110.058 61.5445 110.34 61.5565C110.627 61.5595 110.842 61.6675 110.985 61.8804C111.127 62.0874 111.2 62.3679 111.203 62.7219C111.206 63.1059 111.121 63.5079 110.947 63.9279C110.778 64.3449 110.51 64.7319 110.142 65.0889L111.294 67.0733L110.148 67.7348L109.114 65.8359L108.288 66.3129L108.309 68.7968L107.311 69.3728ZM108.281 65.4669L109.224 64.9224C109.557 64.7304 109.8 64.4964 109.955 64.2204C110.109 63.9444 110.185 63.6534 110.182 63.3474C110.18 63.0474 110.1 62.8524 109.943 62.7624C109.791 62.6694 109.543 62.7219 109.2 62.9199L108.265 63.4599L108.281 65.4669ZM115.574 64.7106C115.023 65.0286 114.549 65.1666 114.152 65.1246C113.755 65.0766 113.448 64.8711 113.231 64.5081C113.014 64.1391 112.903 63.6336 112.897 62.9917C112.892 62.3497 112.994 61.7212 113.203 61.1062C113.412 60.4912 113.713 59.9318 114.105 59.4278C114.498 58.9238 114.97 58.5128 115.521 58.1948C116.175 57.8168 116.712 57.6968 117.131 57.8348C117.555 57.9637 117.821 58.3372 117.931 58.9552L116.832 59.5897C116.762 59.2867 116.614 59.1037 116.389 59.0407C116.169 58.9687 115.877 59.0377 115.514 59.2477C115.009 59.5387 114.616 59.9647 114.334 60.5257C114.051 61.0867 113.913 61.7122 113.918 62.4022C113.924 63.0921 114.071 63.5526 114.36 63.7836C114.649 64.0086 115.046 63.9756 115.55 63.6846C115.914 63.4746 116.204 63.2166 116.421 62.9106C116.643 62.5956 116.786 62.2566 116.851 61.8936L117.95 61.2591C117.851 61.9671 117.593 62.6256 117.175 63.2346C116.762 63.8406 116.229 64.3326 115.574 64.7106ZM119.784 62.1712L119.733 55.8714L120.73 55.2954L120.752 57.9143L123.199 56.5013L123.178 53.8824L124.175 53.3064L124.227 59.6062L123.229 60.1822L123.207 57.4373L120.759 58.8503L120.782 61.5952L119.784 62.1712ZM89.9816 91.4343L89.9299 85.1345L90.9275 84.5585L90.949 87.1774L93.3964 85.7644L93.3749 83.1455L94.3726 82.5695L94.4243 88.8693L93.4266 89.4453L93.4041 86.7004L90.9567 88.1134L90.9792 90.8583L89.9816 91.4343ZM96.42 87.717L96.3683 81.4172L97.366 80.8412L97.4177 87.141L96.42 87.717ZM101.274 85.023C100.874 85.254 100.52 85.38 100.212 85.401C99.9043 85.416 99.6608 85.3275 99.4818 85.1355C99.3026 84.9375 99.2087 84.627 99.2 84.2041L100.252 83.5966C100.265 83.8845 100.358 84.081 100.531 84.186C100.709 84.282 100.952 84.2415 101.258 84.0645C101.523 83.9115 101.733 83.718 101.888 83.484C102.043 83.244 102.119 83.001 102.117 82.755C102.115 82.4971 102.043 82.3366 101.902 82.2736C101.765 82.2076 101.582 82.1956 101.353 82.2376C101.124 82.2796 100.879 82.3246 100.618 82.3726C100.196 82.4476 99.8719 82.4176 99.6463 82.2826C99.4259 82.1446 99.3139 81.8566 99.3103 81.4186C99.3021 81.0497 99.3748 80.6882 99.5285 80.3342C99.6874 79.9712 99.9039 79.6382 100.178 79.3352C100.452 79.0262 100.769 78.7682 101.127 78.5612C101.491 78.3512 101.811 78.2417 102.088 78.2327C102.37 78.2207 102.589 78.3047 102.748 78.4847C102.911 78.6617 102.999 78.9332 103.013 79.2991L101.945 79.9156C101.938 79.6967 101.861 79.5452 101.714 79.4612C101.572 79.3682 101.374 79.3952 101.12 79.5422C100.901 79.6622 100.717 79.8317 100.568 80.0507C100.423 80.2607 100.352 80.4887 100.354 80.7346C100.356 80.9446 100.414 81.0796 100.53 81.1396C100.645 81.1936 100.802 81.2056 101 81.1756C101.198 81.1456 101.425 81.1051 101.68 81.0541C101.951 81.0061 102.199 80.9896 102.424 81.0046C102.648 81.0196 102.829 81.1081 102.966 81.2701C103.103 81.4261 103.173 81.6901 103.176 82.062C103.179 82.392 103.109 82.74 102.966 83.106C102.822 83.472 102.609 83.8245 102.324 84.1635C102.04 84.4965 101.69 84.783 101.274 85.023ZM106.198 82.0715L106.154 76.6987L104.564 77.6167L104.557 76.6897L108.742 74.2732L108.75 75.2002L107.152 76.1227L107.196 81.4955L106.198 82.0715ZM112.828 78.3525C112.282 78.6675 111.803 78.8056 111.39 78.7666C110.983 78.7246 110.66 78.5281 110.422 78.1771C110.189 77.8171 110.07 77.3161 110.065 76.6742C110.06 76.0322 110.17 75.4022 110.394 74.7842C110.624 74.1572 110.94 73.5887 111.344 73.0788C111.752 72.5658 112.229 72.1518 112.774 71.8368C113.315 71.5248 113.791 71.3883 114.204 71.4273C114.617 71.4662 114.939 71.6657 115.172 72.0257C115.405 72.3797 115.524 72.8777 115.529 73.5197C115.534 74.1616 115.425 74.7946 115.2 75.4186C114.975 76.0366 114.659 76.6021 114.251 77.1151C113.842 77.6281 113.368 78.0405 112.828 78.3525ZM112.819 77.3176C113.339 77.0176 113.75 76.5811 114.054 76.0081C114.362 75.4321 114.514 74.7991 114.508 74.1092C114.502 73.4192 114.342 72.9662 114.027 72.7502C113.717 72.5312 113.302 72.5717 112.783 72.8717C112.263 73.1717 111.849 73.6097 111.541 74.1857C111.232 74.7617 111.081 75.3947 111.086 76.0847C111.092 76.7746 111.252 77.2276 111.567 77.4436C111.882 77.6596 112.3 77.6176 112.819 77.3176ZM117.371 75.621L117.319 69.3212L119.322 68.1647C119.759 67.9127 120.118 67.7927 120.4 67.8047C120.687 67.8077 120.902 67.9157 121.045 68.1287C121.188 68.3356 121.26 68.6161 121.263 68.9701C121.266 69.3541 121.181 69.7561 121.007 70.1761C120.838 70.5931 120.57 70.9801 120.202 71.3371L121.354 73.3215L120.208 73.983L119.174 72.0841L118.348 72.5611L118.369 75.045L117.371 75.621ZM118.341 71.7151L119.284 71.1706C119.617 70.9786 119.86 70.7446 120.015 70.4686C120.169 70.1926 120.245 69.9016 120.243 69.5956C120.24 69.2956 120.16 69.1006 120.003 69.0106C119.851 68.9177 119.603 68.9702 119.26 69.1682L118.325 69.7082L118.341 71.7151ZM124.383 71.5726L124.365 69.3317L122.5 66.3303L123.63 65.6778L124.862 67.8872L126.038 64.2873L127.153 63.6438L125.362 68.7557L125.381 70.9966L124.383 71.5726Z" fill="#9AA5BD"/>
</g>
<path d="M210.16 108.065C204.801 109.505 200.468 114.567 198.971 116.919C207.132 110.068 211.953 110.776 217.575 113.229C209.488 110.872 205.916 114.259 203.904 115.741C212.835 123.446 222.883 116.333 227.468 112.574C223.377 113.105 216.858 106.266 210.16 108.065Z" fill="url(#paint7_linear)"/>
<path d="M11.5511 74.8527C15.4749 78.7757 22.0255 80.0008 24.8103 80.1229C14.798 76.4747 13.0038 71.9448 12.3202 65.8494C14.3184 74.0327 19.0367 75.4352 21.3254 76.4377C23.5389 64.852 12.3577 59.7007 6.81074 57.6059C9.31445 60.8854 6.64633 69.9489 11.5511 74.8527Z" fill="url(#paint8_linear)"/>
<path d="M50.1558 126.314C47.0385 126.216 43.8829 128.235 42.6948 129.256C48.2012 126.899 50.6794 128.065 53.3047 130.3C49.3373 127.715 46.8643 128.956 45.5407 129.426C49.0913 135.025 55.655 132.834 58.734 131.558C56.4463 131.177 54.0524 126.437 50.1558 126.314Z" fill="url(#paint9_linear)"/>
<defs>
<filter id="filter0_d" x="59.4717" y="40.4084" width="138.704" height="170.677" filterUnits="userSpaceOnUse" color-interpolation-filters="sRGB">
<feFlood flood-opacity="0" result="BackgroundImageFix"/>
<feColorMatrix in="SourceAlpha" type="matrix" values="0 0 0 0 0 0 0 0 0 0 0 0 0 0 0 0 0 0 127 0"/>
<feOffset dx="4" dy="7"/>
<feGaussianBlur stdDeviation="5.5"/>
<feColorMatrix type="matrix" values="0 0 0 0 0.0116667 0 0 0 0 0.0574 0 0 0 0 0.175 0 0 0 0.15 0"/>
<feBlend mode="normal" in2="BackgroundImageFix" result="effect1_dropShadow"/>
<feBlend mode="normal" in="SourceGraphic" in2="effect1_dropShadow" result="shape"/>
</filter>
<filter id="filter1_di" x="88.6726" y="53.3064" width="39.4801" height="40.1279" filterUnits="userSpaceOnUse" color-interpolation-filters="sRGB">
<feFlood flood-opacity="0" result="BackgroundImageFix"/>
<feColorMatrix in="SourceAlpha" type="matrix" values="0 0 0 0 0 0 0 0 0 0 0 0 0 0 0 0 0 0 127 0"/>
<feOffset dy="1"/>
<feGaussianBlur stdDeviation="0.5"/>
<feColorMatrix type="matrix" values="0 0 0 0 0.00527778 0 0 0 0 0.0205834 0 0 0 0 0.158333 0 0 0 0.15 0"/>
<feBlend mode="normal" in2="BackgroundImageFix" result="effect1_dropShadow"/>
<feBlend mode="normal" in="SourceGraphic" in2="effect1_dropShadow" result="shape"/>
<feColorMatrix in="SourceAlpha" type="matrix" values="0 0 0 0 0 0 0 0 0 0 0 0 0 0 0 0 0 0 127 0" result="hardAlpha"/>
<feOffset/>
<feGaussianBlur stdDeviation="8.5"/>
<feComposite in2="hardAlpha" operator="arithmetic" k2="-1" k3="1"/>
<feColorMatrix type="matrix" values="0 0 0 0 1 0 0 0 0 1 0 0 0 0 1 0 0 0 0.25 0"/>
<feBlend mode="normal" in2="shape" result="effect2_innerShadow"/>
</filter>
<linearGradient id="paint0_linear" x1="108.079" y1="86.9168" x2="97.2464" y2="57.7637" gradientUnits="userSpaceOnUse">
<stop stop-color="#DCDFE8"/>
<stop offset="1" stop-color="white"/>
</linearGradient>
<linearGradient id="paint1_linear" x1="108.079" y1="86.9168" x2="97.2464" y2="57.7637" gradientUnits="userSpaceOnUse">
<stop stop-color="#DCDFE8"/>
<stop offset="1" stop-color="white"/>
</linearGradient>
<linearGradient id="paint2_linear" x1="122.665" y1="84.7214" x2="166.847" y2="135.673" gradientUnits="userSpaceOnUse">
<stop stop-color="#DCDFE8"/>
<stop offset="1" stop-color="white"/>
</linearGradient>
<linearGradient id="paint3_linear" x1="122.665" y1="84.7214" x2="166.847" y2="135.673" gradientUnits="userSpaceOnUse">
<stop stop-color="#DCDFE8"/>
<stop offset="1" stop-color="white"/>
</linearGradient>
<linearGradient id="paint4_linear" x1="122.665" y1="84.7214" x2="166.847" y2="135.673" gradientUnits="userSpaceOnUse">
<stop stop-color="#DCDFE8"/>
<stop offset="1" stop-color="white"/>
</linearGradient>
<linearGradient id="paint5_linear" x1="122.665" y1="84.7214" x2="166.847" y2="135.673" gradientUnits="userSpaceOnUse">
<stop stop-color="#DCDFE8"/>
<stop offset="1" stop-color="white"/>
</linearGradient>
<linearGradient id="paint6_linear" x1="102.656" y1="52.8573" x2="104.277" y2="55.8928" gradientUnits="userSpaceOnUse">
<stop stop-color="#DCDFE8"/>
<stop offset="1" stop-color="white"/>
</linearGradient>
<linearGradient id="paint7_linear" x1="204.373" y1="108.324" x2="219.093" y2="122.411" gradientUnits="userSpaceOnUse">
<stop stop-color="#DCDFE8"/>
<stop offset="1" stop-color="#F9F9F9"/>
</linearGradient>
<linearGradient id="paint8_linear" x1="14.6657" y1="79.7359" x2="19.5165" y2="59.9476" gradientUnits="userSpaceOnUse">
<stop stop-color="#DCDFE8"/>
<stop offset="1" stop-color="#F9F9F9"/>
</linearGradient>
<linearGradient id="paint9_linear" x1="47.0007" y1="125.512" x2="52.6265" y2="135.487" gradientUnits="userSpaceOnUse">
<stop stop-color="#DCDFE8"/>
<stop offset="1" stop-color="#F9F9F9"/>
</linearGradient>
</defs>
</svg>
