<svg width="51" height="50" viewBox="0 0 51 50" fill="none" xmlns="http://www.w3.org/2000/svg">
<path d="M50.4697 25C50.4697 38.8073 39.277 50 25.4697 50C11.6624 50 0.469727 38.8073 0.469727 25C0.469727 11.1927 11.6624 0 25.4697 0C39.277 0 50.4697 11.1927 50.4697 25Z" fill="#FCE82F"/>
<path d="M33.9824 7.4082V13.0692C33.9824 13.0692 27.483 12.1258 27.483 16.3189V20.5121H33.3534L32.6198 26.9066H27.483V43.5746H20.9835V26.9066L15.4274 26.8017V20.5121H20.8786V15.6899C20.8786 15.6899 20.5188 8.51637 27.5879 7.19878C30.5233 6.65137 33.9824 7.4082 33.9824 7.4082Z" fill="black"/>
</svg>
