<svg width="61" height="40" viewBox="0 0 61 40" fill="none" xmlns="http://www.w3.org/2000/svg">
<path d="M24.219 21.8141C24.2807 22.0886 24.1647 22.1827 23.9228 22.1446C23.6834 22.1064 23.5995 22.2208 23.6316 22.4522C23.6636 22.6861 23.5748 22.7801 23.3378 22.7649C23.1132 22.7496 22.8787 22.7801 22.9207 22.4318C22.9478 22.203 22.8565 22.1166 22.6368 22.1446C22.2962 22.1852 22.3332 21.9386 22.3184 21.7098C22.3011 21.4581 22.4048 21.3793 22.6245 21.4124C22.859 21.448 22.9528 21.3463 22.9207 21.1073C22.8886 20.876 22.97 20.7794 23.2119 20.7946C23.4415 20.8073 23.6636 20.787 23.6316 21.1302C23.6167 21.298 23.634 21.4429 23.8562 21.4124C24.1647 21.3717 24.2782 21.5217 24.219 21.8141Z" fill="#2D54E5"/>
<path d="M50.1658 0.464282C49.3512 0.0244738 48.554 0.0931144 47.7666 0.545634C47.1322 0.909175 46.6016 1.41 46.0733 1.91336C45.9697 2.01251 45.8981 2.07352 45.7599 1.93878C45.518 1.7049 45.2539 1.78371 45.1428 2.10657C45.0539 2.36842 45.0687 2.63028 45.2514 2.85399C45.4242 3.06246 45.6044 3.26584 45.792 3.45905C46.0092 3.68531 46.2511 3.64209 46.3893 3.3599C46.525 3.08025 46.5078 2.80569 46.3152 2.55909C46.2362 2.4574 46.1992 2.3913 46.3152 2.28707C46.8657 1.77608 47.4087 1.26001 48.0825 0.921887C48.6527 0.637155 49.2352 0.588852 49.8276 0.837992C51.0593 1.35661 51.8195 2.77518 51.5999 4.12766C51.4641 4.96406 51.121 5.71402 50.7236 6.4411C49.9905 7.78087 49.1661 9.07487 48.1615 10.1985C47.4852 10.9561 47.0286 11.8307 46.4781 12.6543C45.5994 13.9636 44.7923 15.3263 43.8642 16.6025C43.7087 16.8135 43.5483 17.0194 43.373 17.2126C42.9806 17.6473 42.8522 17.6422 42.5116 17.1516C42.282 16.8236 42.0796 16.4728 41.8698 16.1296C40.5542 13.9967 39.5472 11.6756 38.0736 9.63925C37.6342 9.03165 37.3059 8.33762 36.9456 7.67409C36.368 6.60889 35.8299 5.52335 35.5658 4.32341C35.2893 3.07771 35.5288 1.982 36.5087 1.13035C37.4047 0.349881 38.4019 0.306663 39.3645 0.987985C39.9075 1.37186 40.337 1.87523 40.7813 2.36588C40.8776 2.47266 40.8479 2.54638 40.7788 2.65316C40.6283 2.87942 40.6233 3.13364 40.7245 3.38024C40.8504 3.68277 41.1145 3.73869 41.3367 3.50989C41.5243 3.31414 41.7044 3.1133 41.8748 2.9023C42.0698 2.65824 42.0895 2.38114 41.9611 2.10149C41.8303 1.8193 41.5687 1.75574 41.3688 1.98709C41.2083 2.17267 41.1318 2.13708 40.9911 1.96929C40.5098 1.40237 40.0161 0.850704 39.3917 0.441402C38.4932 -0.145857 37.5824 -0.145857 36.6889 0.433775C35.7015 1.07188 35.1857 2.01759 35.119 3.21245C35.0573 4.26748 35.4103 5.22337 35.783 6.18179C36.4618 7.91815 37.538 9.43078 38.3352 11.1036C39.2707 13.0687 40.3938 14.9424 41.4922 16.8211C41.7242 17.2202 41.9118 17.6702 42.2475 17.9778C42.6276 18.3261 42.7732 18.7659 42.9164 19.2286C43.1262 19.915 43.3434 20.6065 43.2891 21.3412C43.2249 22.2183 42.7411 22.8055 41.9883 23.1513C41.2799 23.4767 40.6406 23.2886 40.0803 22.7623C39.7446 22.4471 39.4534 22.0886 39.1621 21.7302C38.8462 21.3412 38.5648 20.9192 38.1723 20.604C37.728 20.243 37.3578 20.3141 37.0714 20.8226C36.8715 21.176 36.758 21.5649 36.6518 21.9564C36.6173 22.0073 36.5803 22.0047 36.5457 21.9564C36.5235 21.8369 36.5013 21.7175 36.4815 21.598C36.0298 18.9489 35.7756 16.272 35.4152 13.6077C35.3535 13.1475 35.3066 12.6823 35.1635 12.2349C35.1141 12.0849 35.0228 11.9603 34.8475 11.9603C34.6698 11.9603 34.5809 12.0925 34.5414 12.2425C34.497 12.3976 34.4723 12.5603 34.4674 12.7204C34.4452 13.3509 34.418 13.9789 34.4205 14.6093C34.4328 17.838 34.4501 21.0666 34.4674 24.2953V24.7224C34.4353 24.669 34.418 24.6537 34.4156 24.636C34.2132 22.9123 34.0231 21.1887 33.8701 19.4599C33.8108 18.7939 33.7861 18.1227 33.6627 17.4643C33.6282 17.2762 33.5615 17.0702 33.3172 17.0804C33.0876 17.0906 33.0012 17.2685 32.9691 17.4719C32.9099 17.81 32.8581 18.1507 32.8112 18.4913C32.6803 19.4676 32.589 20.4489 32.3397 21.4022C32.2311 21.8141 32.1497 21.87 31.7523 21.7937C30.5971 21.5675 29.4444 21.3641 28.2596 21.4098C27.3834 21.4429 26.5047 21.4429 25.6284 21.4734C25.4013 21.481 25.2902 21.4302 25.2187 21.176C24.9422 20.2201 23.9919 19.6252 23.0564 19.7828C22.1308 19.9404 21.4323 20.7387 21.3903 21.6895C21.3484 22.6632 21.9729 23.5275 22.8886 23.764C23.7994 23.9979 24.7423 23.5301 25.1372 22.625C25.2211 22.4318 25.3199 22.3835 25.5124 22.3835C26.1418 22.3886 26.7762 22.3962 27.4056 22.3581C28.7237 22.2793 30.0244 22.3606 31.3154 22.6505C32.3792 22.8869 32.7174 22.6581 32.9864 21.5649C32.9963 21.5242 33.0037 21.4861 33.0136 21.4454C33.0901 21.0438 33.1666 20.6421 33.2629 20.1514C33.2925 20.3319 33.3147 20.4184 33.3221 20.5099C33.5097 22.5488 33.7491 24.5851 33.9984 26.6189C34.1095 27.5341 34.2378 28.4493 34.3711 29.362C34.4032 29.5755 34.4501 29.8425 34.7414 29.8247C35.0228 29.8069 35.0623 29.5527 35.0771 29.3289C35.1017 28.9552 35.119 28.579 35.1166 28.2027C35.1017 24.3944 35.082 20.5887 35.0647 16.7804V16.4448C35.2153 17.2279 35.3115 18.0109 35.4152 18.7913C35.5831 20.0574 35.7213 21.3285 36.0051 22.5767C36.052 22.7928 36.1039 23.014 36.2149 23.2072C36.405 23.5377 36.674 23.5479 36.8962 23.2453C37.0122 23.0852 37.064 22.9021 37.1208 22.7166C37.2269 22.3784 37.3158 22.0352 37.4368 21.7047C37.6046 21.237 37.6984 21.2166 38.0267 21.57C38.2439 21.8039 38.4438 22.0581 38.6462 22.3073C39.0362 22.7928 39.4114 23.2886 39.8952 23.6826C40.7147 24.3487 41.6575 24.4224 42.5363 23.8453C43.6791 23.0954 44.0469 21.9793 43.9111 20.6395C43.8371 19.9074 43.6223 19.2108 43.3928 18.5193C43.3483 18.3897 43.3113 18.2829 43.4495 18.1736C43.7605 17.9346 43.995 17.6168 44.2246 17.299C45.6636 15.311 46.9644 13.2238 48.201 11.101C48.5713 10.4655 48.9884 9.87822 49.3907 9.27571C49.8819 8.53846 50.3953 7.81646 50.8347 7.04616C51.3629 6.12332 51.8195 5.17506 51.9627 4.09207C52.1552 2.66587 51.4024 1.13035 50.1658 0.464282ZM23.36 23.314C22.5307 23.3165 21.8642 22.6454 21.8593 21.8039C21.8544 20.9522 22.5307 20.2557 23.3625 20.2607C24.1795 20.2658 24.8509 20.9548 24.8534 21.7937C24.8534 22.6327 24.1869 23.3114 23.36 23.314Z" fill="#2D54E5"/>
<path d="M11.1494 23.5377C12.8747 23.5555 14.4569 24.0207 15.8293 25.1342C16.1625 25.4037 16.16 25.4088 15.9329 25.78C15.5479 26.4054 15.1554 27.0282 14.7827 27.6612C14.6667 27.8595 14.5926 27.8748 14.41 27.7324C13.5436 27.0587 12.581 26.5909 11.4826 26.5426C8.02202 26.3876 6.83971 29.6137 7.79988 32.0263C8.53296 33.8694 10.3965 34.777 12.3317 34.238C13.1956 33.9965 13.9509 33.5465 14.6149 32.9364C14.7802 32.7864 14.8642 32.7559 15.0073 32.972C15.4491 33.633 15.9082 34.2812 16.3772 34.9219C16.513 35.1075 16.4784 35.2066 16.3279 35.3464C14.9802 36.5998 13.3906 37.2531 11.5887 37.3726C10.8384 37.4209 10.0905 37.3624 9.35244 37.1997C9.19693 37.1667 9.08586 37.098 8.99453 36.9658C7.40495 34.6905 5.81289 32.4178 4.22331 30.145C4.03572 29.8755 4.08508 29.4535 4.33438 29.1434C5.52657 27.6689 6.76566 26.2299 7.89614 24.7071C8.45891 23.947 9.17966 23.7385 9.99666 23.6165C10.3768 23.558 10.7618 23.525 11.1494 23.5377Z" fill="#2D54E5"/>
<path d="M60.6931 32.2347C60.6807 34.0499 60.7178 35.6057 60.5869 37.154C60.4783 38.4327 59.8267 39.3123 58.6345 39.7064C57.4473 40.0979 56.2501 40.1233 55.0752 39.6276C54.4976 39.3835 54.0657 38.9691 53.7794 38.3946C53.6856 38.209 53.6609 38.0895 53.9497 38.0997C54.5692 38.12 55.1912 38.1099 55.8132 38.1022C55.9515 38.0997 56.0428 38.1404 56.1391 38.2522C56.534 38.7276 57.393 38.8852 57.9335 38.598C58.1804 38.4683 58.3087 38.2497 58.3852 37.9878C58.479 37.67 58.4469 37.3446 58.4469 37.0192C58.4469 36.8057 58.3827 36.7447 58.1655 36.7853C57.0375 36.9964 55.9268 36.8896 54.8432 36.5082C54.1101 36.2489 53.5276 35.8168 53.3277 34.988C53.2709 34.749 53.2635 34.505 53.2635 34.2634C53.2635 31.9703 53.2684 29.6747 53.2561 27.3816C53.2536 27.1045 53.3351 27.0358 53.5893 27.0511C53.9324 27.074 54.2804 27.0511 54.6235 27.0587C55.327 27.074 55.7145 27.4807 55.717 28.2078C55.7195 30.2187 55.7195 32.2271 55.7195 34.238C55.7195 35.1253 56.1391 35.5447 57.0128 35.5244C57.2301 35.5193 57.4448 35.4837 57.6521 35.41C58.1655 35.2269 58.3581 34.9524 58.3581 34.388C58.3581 32.0644 58.3655 29.7382 58.3507 27.4146C58.3482 27.1121 58.4297 27.0307 58.711 27.0536C59.0146 27.0791 59.3232 27.0536 59.6268 27.0638C60.2513 27.0892 60.6906 27.5545 60.6906 28.2027C60.6955 29.6366 60.6931 31.0678 60.6931 32.2347Z" fill="#0F1733"/>
<path d="M31.2314 32.9415C31.2314 31.7746 31.2339 30.6077 31.2314 29.4408C31.229 28.7798 30.9673 28.49 30.3206 28.4112C30.0738 28.3807 29.8295 28.3858 29.5826 28.4163C28.9779 28.4951 28.7138 28.7925 28.7138 29.423C28.7113 31.4237 28.7138 33.422 28.7113 35.4227C28.7113 35.6134 28.7014 35.8117 28.6619 35.9973C28.5533 36.4981 28.0992 36.8718 27.5932 36.882C27.2279 36.8896 26.8626 36.8743 26.4997 36.887C26.3047 36.8947 26.2455 36.8311 26.2479 36.6303C26.2578 35.8803 26.2529 35.1278 26.2529 34.3778C26.2529 32.7737 26.2529 31.1695 26.2529 29.5654C26.2529 28.3985 26.7268 27.6765 27.8104 27.3409C29.2395 26.9011 30.6934 26.8986 32.1225 27.3384C33.211 27.6714 33.6899 28.3934 33.6899 29.5552C33.6899 31.5254 33.6899 33.4931 33.6899 35.4634C33.6899 36.4091 33.2283 36.882 32.3027 36.882C32.0361 36.882 31.7695 36.8667 31.5054 36.887C31.2808 36.9048 31.224 36.8235 31.224 36.5972C31.2364 35.3769 31.2314 34.1592 31.2314 32.9415Z" fill="#0F1733"/>
<path d="M42.2351 31.9805C42.2351 32.8042 42.2327 33.6253 42.2351 34.449C42.2376 35.0515 42.4844 35.3388 43.067 35.4303C43.4619 35.4913 43.8543 35.4964 44.2369 35.3693C44.6269 35.2397 44.8096 34.9778 44.8244 34.5533C44.8244 34.5431 44.8269 34.5329 44.8244 34.5228C44.7232 33.5465 45.1576 33.1143 46.1647 33.1906C46.4387 33.2109 46.7176 33.1982 46.994 33.1932C47.1273 33.1906 47.194 33.2287 47.1865 33.3813C47.1594 34.0118 47.1224 34.6397 46.8928 35.2346C46.5769 36.0506 45.9573 36.5006 45.1551 36.6887C43.9629 36.9658 42.7658 36.9709 41.5835 36.6379C40.7714 36.4091 40.0927 35.9871 39.8359 35.082C39.7644 34.8278 39.7471 34.5634 39.7471 34.299C39.7471 32.7457 39.7471 31.1924 39.7471 29.6391C39.7471 28.5307 40.1963 27.8468 41.2009 27.4451C42.1808 27.0536 43.2027 27.0358 44.232 27.1096C44.5356 27.1324 44.8392 27.1807 45.1354 27.257C46.3374 27.5646 46.9915 28.3248 47.1322 29.5908C47.226 30.4272 47.226 30.4272 46.4164 30.4272C46.1795 30.4272 45.9425 30.4323 45.7056 30.4246C45.2168 30.4094 44.854 30.0408 44.8269 29.5374C44.7849 28.7773 44.5677 28.551 43.8247 28.4646C43.5557 28.4341 43.2916 28.4442 43.0299 28.4925C42.4894 28.5891 42.2425 28.8917 42.2376 29.4561C42.2327 30.295 42.2376 31.139 42.2351 31.9805Z" fill="#0F1733"/>
<path d="M51.0396 29.5908C51.0396 31.1339 51.0396 32.6771 51.0396 34.2202C51.0396 35.0668 51.242 35.3515 52.0343 35.5473C52.2663 35.6032 52.3675 35.6871 52.3379 35.9464C52.3132 36.1879 52.3255 36.4345 52.3354 36.676C52.3428 36.8413 52.2762 36.8845 52.1256 36.8769C51.2938 36.8362 50.4743 36.7269 49.6919 36.4269C48.9218 36.1294 48.6379 35.4888 48.6231 34.6982C48.6058 33.6838 48.6181 32.6669 48.6181 31.6526C48.6181 29.6925 48.6181 27.7324 48.6181 25.7723C48.6181 24.8368 48.9884 24.4555 49.8893 24.4555C50.1855 24.4555 50.4817 24.4682 50.7779 24.4504C50.9828 24.4377 51.0445 24.4987 51.042 24.7173C51.0322 25.9554 51.0371 27.196 51.0371 28.4341C51.0396 28.8205 51.0396 29.2044 51.0396 29.5908Z" fill="#0F1733"/>
<path d="M19.5539 29.5781C19.5539 31.1314 19.5539 32.6847 19.5539 34.238C19.5539 35.0566 19.7687 35.3541 20.5412 35.5447C20.7831 35.6032 20.8893 35.6947 20.8547 35.9591C20.8325 36.1396 20.8498 36.3252 20.8498 36.5057C20.8498 36.8921 20.8498 36.8921 20.4869 36.8667C19.8353 36.8235 19.1936 36.7345 18.5666 36.5438C17.5768 36.2439 17.1671 35.7151 17.1424 34.6524C17.1276 34.0728 17.1375 33.4957 17.1375 32.916C17.1375 30.5187 17.135 28.1239 17.1375 25.7266C17.1375 25.0147 17.4188 24.5597 17.9841 24.486C18.4605 24.425 18.9492 24.4605 19.4305 24.4529C19.5984 24.4504 19.5515 24.58 19.5515 24.669C19.5539 25.33 19.5539 25.9884 19.5539 26.6494C19.5539 27.6282 19.5539 28.6019 19.5539 29.5781Z" fill="#0F1733"/>
<path d="M24.4189 31.6195C24.4189 32.9593 24.4214 34.299 24.4189 35.6388C24.4165 36.4396 23.9895 36.8769 23.2119 36.8794C22.896 36.8794 22.5801 36.8718 22.2666 36.882C22.1061 36.887 22.042 36.8438 22.042 36.6633C22.0469 33.8414 22.042 31.0221 22.0494 28.2002C22.0518 27.5468 22.4789 27.1223 23.1132 27.1019C23.4588 27.0918 23.8043 27.1146 24.1474 27.0943C24.3794 27.0791 24.4239 27.168 24.4214 27.3892C24.414 28.8002 24.4189 30.2111 24.4189 31.6195Z" fill="#0F1733"/>
<path d="M37.9131 31.6017C37.9131 32.9516 37.9156 34.3016 37.9131 35.6515C37.9107 36.432 37.4787 36.8769 36.7234 36.8794C36.4075 36.8794 36.0915 36.8718 35.7781 36.882C35.6077 36.887 35.5362 36.8489 35.5362 36.6506C35.5436 33.8389 35.5362 31.0297 35.5436 28.218C35.546 27.5494 35.9706 27.1197 36.6222 27.1019C36.9678 27.0918 37.3133 27.1121 37.6564 27.0943C37.8687 27.0841 37.9205 27.1604 37.9181 27.3689C37.9082 28.7824 37.9131 30.1908 37.9131 31.6017Z" fill="#0F1733"/>
<path d="M4.62317 37.4845C4.46767 37.5531 4.33685 37.5302 4.21343 37.5302C2.89289 37.5455 1.56989 37.5531 0.249345 37.5684C0.0938417 37.5709 -0.00242194 37.5684 4.63581e-05 37.3523C0.029666 35.1608 0.0494124 32.9669 0.0740954 30.7755C0.0740954 30.7577 0.0864369 30.7399 0.108652 30.6687C1.62419 32.9567 3.11998 35.2168 4.62317 37.4845Z" fill="#0F1733"/>
<path d="M0.158018 28.7035C0.128398 26.9011 0.0987784 25.0961 0.0642222 23.2936C0.0617539 23.164 0.0963101 23.1157 0.22713 23.1157C1.56495 23.1182 2.90277 23.1182 4.2628 23.1182C2.92498 24.9792 1.57235 26.8579 0.219725 28.7366C0.199979 28.7239 0.177764 28.7137 0.158018 28.7035Z" fill="#0F1733"/>
<path d="M37.9699 24.791C37.9699 25.0554 37.9748 25.3173 37.9674 25.5817C37.9576 25.902 37.7897 26.113 37.4861 26.1257C36.9258 26.1486 36.3655 26.1359 35.8052 26.141C35.6917 26.141 35.6522 26.0952 35.6522 25.9783C35.6571 25.4317 35.6448 24.8851 35.6596 24.3385C35.6695 24.0207 35.8768 23.8072 36.1903 23.7996C36.7308 23.7843 37.2714 23.797 37.8119 23.7919C37.9526 23.7894 37.9724 23.858 37.9699 23.975C37.9674 24.2444 37.9699 24.5165 37.9699 24.791Z" fill="#0F1733"/>
<path d="M36.6518 21.9539C36.6568 22.0073 36.6469 22.0708 36.5901 22.0708C36.5235 22.0708 36.5432 22.0022 36.5457 21.9564C36.5803 21.9564 36.6173 21.9539 36.6518 21.9539Z" fill="#2D54E5"/>
<path d="M23.9228 22.1446C23.6834 22.1064 23.5995 22.2208 23.6316 22.4522C23.6636 22.6861 23.5748 22.7801 23.3378 22.7649C23.1132 22.7496 22.8787 22.7801 22.9207 22.4318C22.9478 22.203 22.8565 22.1166 22.6368 22.1446C22.2962 22.1852 22.3332 21.9386 22.3184 21.7098C22.3011 21.4581 22.4048 21.3793 22.6245 21.4124C22.859 21.448 22.9528 21.3463 22.9207 21.1073C22.8886 20.876 22.97 20.7794 23.2119 20.7946C23.4415 20.8073 23.6636 20.787 23.6316 21.1302C23.6167 21.298 23.634 21.4429 23.8562 21.4124C24.1647 21.3717 24.2782 21.5217 24.219 21.8141C24.2807 22.0886 24.1647 22.1827 23.9228 22.1446Z" fill="#0F1733"/>
<path d="M23.9228 22.1446C23.6834 22.1064 23.5995 22.2208 23.6316 22.4522C23.6636 22.6861 23.5748 22.7801 23.3378 22.7649C23.1132 22.7496 22.8787 22.7801 22.9207 22.4318C22.9478 22.203 22.8565 22.1166 22.6368 22.1446C22.2962 22.1852 22.3332 21.9386 22.3184 21.7098C22.3011 21.4581 22.4048 21.3793 22.6245 21.4124C22.859 21.448 22.9528 21.3463 22.9207 21.1073C22.8886 20.876 22.97 20.7794 23.2119 20.7946C23.4415 20.8073 23.6636 20.787 23.6316 21.1302C23.6167 21.298 23.634 21.4429 23.8562 21.4124C24.1647 21.3717 24.2782 21.5217 24.219 21.8141C24.2807 22.0886 24.1647 22.1827 23.9228 22.1446Z" fill="#2D54E5"/>
</svg>
