<svg width="226" height="92" viewBox="0 0 226 92" fill="none" xmlns="http://www.w3.org/2000/svg">
<path d="M225.684 20.4528L216.482 36.3911C216.061 37.1189 215.284 37.5674 214.442 37.5674H209.602C208.366 37.5674 207.366 36.5667 207.366 35.3313V28.1596L213.171 31.5127C213.833 31.8957 214.679 31.6672 215.062 31.0071L215.805 29.7209C216.188 29.0587 215.959 28.2125 215.297 27.8296L206.116 22.5302C205.572 22.2171 204.903 22.2171 204.36 22.5302L195.178 27.8296C194.516 28.2125 194.29 29.0587 194.671 29.7209L195.413 31.0071C195.796 31.6693 196.642 31.8957 197.304 31.5127L203.109 28.1596V35.3334C203.109 36.5688 202.109 37.5695 200.873 37.5695H196.035C195.193 37.5695 194.417 37.121 193.996 36.3933L184.793 20.4549C184.372 19.7272 184.372 18.8302 184.793 18.1003L187.213 13.9095C187.831 12.839 189.2 12.473 190.268 13.0908L196.477 16.6766L190.672 20.0276C190.01 20.4105 189.784 21.2567 190.165 21.9188L190.907 23.2051C191.29 23.8672 192.136 24.0936 192.798 23.7107L201.98 18.4092C202.523 18.0961 202.858 17.5164 202.858 16.8881V6.28726C202.858 5.52355 202.238 4.9037 201.474 4.9037H199.989C199.225 4.9037 198.605 5.52355 198.605 6.28726V12.9913L192.396 9.40554C191.326 8.7878 190.96 7.41906 191.578 6.35072L193.998 2.15987C194.419 1.43213 195.195 0.983643 196.037 0.983643H214.442C215.284 0.983643 216.061 1.43213 216.482 2.15987L218.902 6.35072C219.519 7.42118 219.153 8.7878 218.083 9.40554L211.874 12.9913V6.28726C211.874 5.52355 211.254 4.9037 210.49 4.9037H209.007C208.244 4.9037 207.624 5.52355 207.624 6.28726V16.8881C207.624 17.5143 207.958 18.094 208.502 18.4092L217.681 23.7107C218.343 24.0936 219.189 23.8651 219.572 23.2051L220.315 21.9188C220.698 21.2567 220.469 20.4105 219.807 20.0276L214.002 16.6766L220.211 13.0908C221.282 12.473 222.648 12.839 223.266 13.9095L225.686 18.1003C226.105 18.8281 226.105 19.7251 225.684 20.4528Z" fill="#FCE82F"/>
<path d="M27.5929 54.8448C26.789 53.2709 25.7841 51.9529 24.5825 50.8867C24.1361 50.4911 23.6093 50.1928 23.0424 49.9432C24.3815 49.5793 25.6 49.0906 26.662 48.439C28.5004 47.3115 29.8332 45.82 30.6604 43.9647C31.4875 42.1094 31.6949 39.9431 31.2802 37.4701C30.2309 31.2145 25.7312 28.0941 17.7789 28.1046L12.799 28.111L0.875925 28.3966C0.641102 28.4029 0.454934 28.5933 0.457049 28.8282L0.482434 32.1432C0.48455 32.2955 0.583982 32.4288 0.729953 32.469L4.52097 33.5606L4.63732 67.263C4.63732 67.4999 4.82984 67.6903 5.06677 67.6903L12.0967 67.6797C12.3315 67.6797 12.524 67.4893 12.524 67.2524L12.5832 51.5446L14.2926 51.5425C15.4434 51.5044 16.3531 51.5785 17.0216 51.7625C17.6901 51.9508 18.3036 52.3803 18.86 53.0551C19.4164 53.7257 20.0616 54.8681 20.7936 56.478L24.94 65.6404C25.4964 66.8674 26.7191 67.6565 28.0667 67.6543L33.4571 67.6459C33.7765 67.6459 33.9838 67.3074 33.8379 67.0218L31.5573 62.5728L27.5929 54.8448ZM15.3334 45.9787L12.5494 45.9829L12.4394 33.8419L16.9475 33.8356C17.4108 33.8356 17.9461 33.8631 18.5532 33.9181C19.1604 33.9752 19.7845 34.1233 20.4234 34.3666C21.0622 34.6078 21.6355 35.0309 22.1412 35.6296C22.6468 36.2261 22.9937 37.0893 23.182 38.2105C23.4147 39.5983 23.2624 40.8803 22.7272 42.0607C22.1898 43.2412 21.3076 44.189 20.0764 44.9019C18.8452 45.6212 17.2628 45.9766 15.3334 45.9787Z" fill="white"/>
<path d="M45.7338 55.6064C48.0884 55.6022 50.3351 55.3674 52.4781 54.8956C54.619 54.426 56.5018 53.7363 58.1266 52.8351C59.7513 51.9339 60.9804 50.8084 61.8181 49.4587C62.6538 48.109 62.9203 46.533 62.6178 44.7348C62.2222 42.376 60.9889 40.4868 58.9157 39.0652C56.8424 37.6435 54.1853 36.9369 50.9423 36.9412C48.2407 36.9454 45.9073 37.4806 43.9441 38.549C41.9809 39.6194 40.4048 41.0474 39.2159 42.8287C38.027 44.6099 37.2273 46.6345 36.8169 48.9023C36.4065 51.1702 36.4023 53.5036 36.8042 55.9005C37.2887 58.7861 38.2132 61.1428 39.584 62.9769C40.9528 64.809 42.6071 66.1587 44.547 67.0154C46.487 67.8743 48.594 68.3038 50.8724 68.2996C52.8018 68.2953 54.7756 67.9843 56.7959 67.3645C58.6808 66.7827 60.5086 65.9534 62.2751 64.8661C62.4803 64.7391 62.5438 64.462 62.4168 64.2589L60.0982 60.5821C59.9798 60.396 59.7365 60.3367 59.5397 60.4383C58.2091 61.1385 56.9038 61.6949 55.626 62.1096C54.234 62.5623 52.9012 62.7886 51.6277 62.7907C49.7745 62.7929 48.2259 62.2428 46.9778 61.1364C45.7296 60.0342 44.8982 58.2254 44.4751 55.7164C44.4666 55.6678 44.4666 55.617 44.4603 55.5662C44.5005 55.5684 44.528 55.5747 44.5682 55.5747C44.9215 55.598 45.3086 55.6086 45.7338 55.6064ZM44.3355 50.7598C44.4751 49.3276 44.7628 47.9927 45.2367 46.7826C45.7486 45.4688 46.47 44.409 47.3988 43.6008C48.3232 42.7969 49.4635 42.3908 50.8132 42.3887C52.0106 42.3865 52.9753 42.6806 53.7094 43.2581C54.4434 43.8378 54.8898 44.5973 55.0464 45.5323C55.1902 46.3954 55.0294 47.1634 54.564 47.8382C54.0986 48.5152 53.4089 49.0674 52.4972 49.4989C51.5854 49.9305 50.5488 50.2584 49.3916 50.4869C48.2323 50.7153 47.0349 50.8275 45.8015 50.8296C45.3382 50.8296 44.9003 50.8105 44.4878 50.7746C44.437 50.7703 44.3884 50.7661 44.3355 50.7598Z" fill="white"/>
<path d="M95.6176 37.9376L85.3023 67.4047C85.2431 67.576 85.0802 67.6903 84.8983 67.6924L80.3055 67.703C78.5369 67.7072 76.9482 66.6241 76.305 64.9761L67.5362 42.486L65.0716 41.8809C64.9193 41.8428 64.8114 41.7074 64.8114 41.5509L64.7839 38.2359C64.7818 38.0053 64.9616 37.8149 65.1901 37.8043L71.8582 37.4679C73.1 37.4045 74.2276 38.1872 74.6084 39.3698L81.2998 60.2881L88.0483 37.9122C88.1012 37.7366 88.2598 37.6139 88.4439 37.6076L95.203 37.3664C95.4992 37.3579 95.7171 37.6541 95.6176 37.9376Z" fill="white"/>
<path d="M105.139 55.5281C107.494 55.5239 109.743 55.2869 111.884 54.8152C114.025 54.3455 115.907 53.658 117.532 52.7547C119.157 51.8534 120.386 50.7301 121.224 49.3783C122.059 48.0286 122.326 46.4546 122.025 44.6564C121.63 42.2976 120.397 40.4085 118.323 38.9868C116.25 37.5652 113.593 36.8565 110.35 36.8607C107.648 36.865 105.315 37.4002 103.352 38.4706C101.389 39.539 99.8125 40.967 98.6236 42.7503C97.4347 44.5316 96.635 46.5562 96.2246 48.8219C95.8142 51.0876 95.8078 53.4232 96.2098 55.8201C96.6942 58.7056 97.6187 61.0623 98.9896 62.8986C100.358 64.7306 102.013 66.0803 103.953 66.9371C105.893 67.7981 108 68.2255 110.278 68.2212C112.207 68.2191 114.181 67.906 116.201 67.2862C118.086 66.7065 119.914 65.8751 121.681 64.7877C121.886 64.6608 121.949 64.3837 121.822 64.1806L119.504 60.5038C119.385 60.3176 119.142 60.2584 118.945 60.36C117.615 61.0602 116.309 61.6166 115.032 62.0333C113.64 62.4861 112.307 62.7103 111.033 62.7124C109.18 62.7145 107.629 62.1645 106.383 61.0602C105.137 59.958 104.304 58.1514 103.881 55.6423C103.872 55.5937 103.872 55.5429 103.866 55.4921C103.906 55.4943 103.934 55.5006 103.974 55.5027C104.329 55.5175 104.714 55.5281 105.139 55.5281ZM103.743 50.6793C103.883 49.2471 104.17 47.9122 104.646 46.7021C105.158 45.3884 105.88 44.3285 106.806 43.5225C107.731 42.7186 108.871 42.3103 110.221 42.3103C111.418 42.3082 112.385 42.6001 113.117 43.1798C113.851 43.7595 114.297 44.5189 114.454 45.454C114.6 46.3171 114.437 47.0829 113.972 47.7578C113.506 48.4348 112.817 48.9869 111.905 49.4185C110.993 49.85 109.954 50.1779 108.797 50.4064C107.638 50.6349 106.44 50.747 105.207 50.7491C104.744 50.7491 104.306 50.7301 103.895 50.6941C103.845 50.6899 103.796 50.6857 103.743 50.6793Z" fill="white"/>
<path d="M154.455 67.538H150.577C148.686 67.538 147.154 66.0085 147.15 64.1172L147.122 48.896C147.156 47.6965 147.035 46.6345 146.762 45.7248C146.487 44.8003 146.094 44.0959 145.563 43.5839C145.032 43.0868 144.33 42.8308 143.439 42.8308C142.582 42.8308 141.759 43.072 140.953 43.567C140.149 44.0472 139.428 44.7834 138.776 45.7608C138.125 46.7382 137.611 47.9715 137.234 49.4968C136.841 51.0221 136.669 52.7864 136.703 54.8089L136.737 67.0768C136.737 67.3137 136.547 67.5063 136.31 67.5063L132.413 67.5147C130.524 67.5189 128.986 65.9915 128.977 64.1024L128.888 42.8985L125.004 41.754C124.858 41.7117 124.759 41.5784 124.759 41.4261L124.744 38.1026C124.744 37.872 124.926 37.6816 125.157 37.6732L133.382 37.377C134.89 37.322 136.121 38.5744 136.041 40.0806L135.863 43.4443C135.948 43.2729 136.018 43.1016 136.102 42.9471C137.336 40.857 138.827 39.2979 140.558 38.3036C142.305 37.3093 144.053 36.8121 145.785 36.8121C147.6 36.8121 149.195 37.2395 150.549 38.0963C151.903 38.953 152.965 40.1525 153.735 41.6948C154.488 43.2201 154.848 45.0542 154.831 47.1951L154.882 67.1043C154.884 67.3455 154.691 67.538 154.455 67.538Z" fill="white"/>
<path d="M178.184 61.5742C178.083 61.3733 177.837 61.2929 177.63 61.3796C177.012 61.6419 176.42 61.8619 175.855 62.0333C175.174 62.2385 174.565 62.3443 174.025 62.3443C173.215 62.3464 172.561 62.1306 172.064 61.7012C171.567 61.2696 171.237 60.5672 171.074 59.592C171.03 59.3318 170.996 59.08 170.977 58.8346C170.956 58.5914 170.951 58.3925 170.964 58.2444L170.901 42.6213L178.252 42.6107C178.44 42.6107 178.595 42.4563 178.595 42.268L178.597 37.781C178.597 37.5906 178.442 37.4382 178.254 37.4382L170.894 37.4488L170.846 30.0318C170.844 29.7674 170.604 29.5664 170.342 29.6129L163.49 30.823C163.285 30.859 163.137 31.0367 163.137 31.2461L163.143 37.4446L158.942 38.4156C158.785 38.4516 158.675 38.5891 158.675 38.7499L158.677 42.2955C158.677 42.4859 158.832 42.6382 159.02 42.6382L163.143 42.6319L163.213 58.6485C163.249 59.0991 163.278 59.501 163.3 59.8564C163.321 60.2118 163.363 60.5799 163.426 60.9523C163.847 63.4613 164.848 65.2891 166.428 66.4294C168.009 67.5696 169.919 68.1387 172.159 68.1366C173.395 68.1345 174.725 67.9631 176.156 67.6246C177.448 67.32 178.739 66.8736 180.033 66.294C180.258 66.1924 180.357 65.9174 180.247 65.6974L178.184 61.5742Z" fill="white"/>
<path d="M123.676 88C127.665 88 129.972 85.5263 129.972 81.4354C129.972 77.3636 127.665 74.9091 123.81 74.9091H119.438V88H123.676ZM121.413 86.2741V76.6349H123.689C126.553 76.6349 128.029 78.348 128.029 81.4354C128.029 84.5355 126.553 86.2741 123.567 86.2741H121.413ZM134.404 74.9091H132.428V88H134.404V74.9091ZM146.139 79.0447H148.166C147.725 76.4943 145.545 74.7301 142.72 74.7301C139.332 74.7301 136.858 77.2805 136.858 81.4609C136.858 85.603 139.262 88.179 142.809 88.179C145.986 88.179 148.255 86.0952 148.255 82.7905V81.3011H143.11V82.9311H146.344C146.299 85.0405 144.906 86.3764 142.809 86.3764C140.502 86.3764 138.82 84.6314 138.82 81.4482C138.82 78.2777 140.514 76.5327 142.732 76.5327C144.471 76.5327 145.647 77.4915 146.139 79.0447ZM152.738 74.9091H150.762V88H152.738V74.9091ZM154.968 76.6094H159.047V88H161.015V76.6094H165.1V74.9091H154.968V76.6094ZM166.88 88L168.082 84.5355H173.195L174.391 88H176.487L171.776 74.9091H169.494L164.783 88H166.88ZM168.657 82.8736L170.587 77.2869H170.69L172.62 82.8736H168.657ZM178.378 88H186.285V86.2997H180.353V74.9091H178.378V88Z" fill="#FCE82F"/>
</svg>
