<svg width="16" height="16" viewBox="0 0 16 16" fill="none" xmlns="http://www.w3.org/2000/svg">
<path opacity="0.4" d="M12.8936 9.65926L12.2269 8.55259C12.0869 8.30592 11.9603 7.83926 11.9603 7.56592V5.87928C11.9603 3.70595 10.1936 1.93262 8.01359 1.93262C5.83362 1.93262 4.06695 3.70595 4.06695 5.87928V7.56592C4.06695 7.83926 3.94029 8.30592 3.80029 8.54592L3.12695 9.65926C2.86029 10.1059 2.80029 10.5993 2.96695 11.0526C3.12695 11.4993 3.50695 11.8459 4.00029 12.0126C5.29362 12.4526 6.65362 12.6659 8.01359 12.6659C9.37359 12.6659 10.7336 12.4526 12.0269 12.0193C12.4936 11.8659 12.8536 11.5126 13.0269 11.0526C13.2003 10.5926 13.1536 10.0859 12.8936 9.65926Z" fill="#596180"/>
<path d="M9.50086 2.21301C9.04086 2.03301 8.54086 1.93301 8.01419 1.93301C7.49419 1.93301 6.99419 2.02634 6.53418 2.21301C6.82086 1.67301 7.38752 1.33301 8.01419 1.33301C8.64752 1.33301 9.20752 1.67301 9.50086 2.21301ZM9.88679 13.3397C9.60679 14.113 8.86679 14.6663 8.00012 14.6663C7.47346 14.6663 6.95346 14.453 6.58678 14.073C6.37345 13.873 6.21345 13.6063 6.12012 13.333C6.20678 13.3463 6.29345 13.353 6.38678 13.3663C6.54012 13.3863 6.70012 13.4063 6.86012 13.4197C7.24012 13.453 7.62679 13.473 8.01346 13.473C8.39346 13.473 8.77346 13.453 9.14679 13.4197C9.28679 13.4063 9.42679 13.3997 9.56012 13.3797C9.66679 13.3663 9.77346 13.353 9.88679 13.3397Z" fill="#596180"/>
</svg>
