<svg width="32" height="32" viewBox="0 0 32 32" fill="none" xmlns="http://www.w3.org/2000/svg">
<path d="M29.8523 2.39131C29.8409 2.33603 29.8139 2.28515 29.7746 2.24464C29.7353 2.20412 29.6853 2.17565 29.6304 2.16256C25.9698 1.26756 17.5117 4.45693 12.9292 9.03756C12.1118 9.84828 11.3667 10.7287 10.7023 11.6688C9.28916 11.5438 7.87604 11.6482 6.67166 12.1732C3.27354 13.6688 2.28416 17.5713 2.00854 19.2501C1.9929 19.3419 1.9988 19.4362 2.02576 19.5254C2.05273 19.6146 2.10002 19.6964 2.16393 19.7642C2.22784 19.8321 2.30662 19.8842 2.39407 19.9164C2.48152 19.9487 2.57526 19.9602 2.66791 19.9501L8.12479 19.3482C8.12868 19.7596 8.15351 20.1705 8.19916 20.5794C8.22662 20.8634 8.35267 21.1287 8.55541 21.3294L10.6685 23.4376C10.8694 23.64 11.1347 23.766 11.4185 23.7938C11.8251 23.8393 12.2338 23.8641 12.6429 23.8682L12.0442 29.3182C12.0342 29.4108 12.0458 29.5045 12.0781 29.5919C12.1104 29.6793 12.1625 29.758 12.2303 29.8219C12.2981 29.8857 12.3798 29.933 12.4689 29.9601C12.5581 29.9871 12.6523 29.9931 12.7442 29.9776C14.4198 29.7088 18.3292 28.7194 19.816 25.3213C20.341 24.1169 20.4485 22.7107 20.3273 21.3044C21.2697 20.64 22.1524 19.8946 22.9654 19.0769C27.5623 14.5032 30.7335 6.23381 29.8523 2.39131ZM18.3792 13.6207C17.9594 13.2012 17.6735 12.6667 17.5576 12.0847C17.4417 11.5027 17.501 10.8994 17.728 10.3511C17.955 9.80278 18.3395 9.33413 18.8329 9.0044C19.3263 8.67466 19.9064 8.49867 20.4998 8.49867C21.0932 8.49867 21.6733 8.67466 22.1667 9.0044C22.6601 9.33413 23.0446 9.80278 23.2716 10.3511C23.4986 10.8994 23.5579 11.5027 23.442 12.0847C23.3261 12.6667 23.0402 13.2012 22.6204 13.6207C22.3421 13.8994 22.0115 14.1206 21.6476 14.2714C21.2838 14.4223 20.8937 14.5 20.4998 14.5C20.1059 14.5 19.7158 14.4223 19.3519 14.2714C18.9881 14.1206 18.6575 13.8994 18.3792 13.6207Z" fill="#EDF1FF"/>
<path d="M10.525 24.9644C10.1825 25.3075 9.63313 25.4413 8.97188 25.5556C7.48625 25.8088 6.17437 24.525 6.44125 23.0231C6.54312 22.4538 6.84438 21.6556 7.03188 21.4681C7.07286 21.4279 7.10014 21.3759 7.10984 21.3193C7.11954 21.2627 7.11116 21.2045 7.08591 21.153C7.06065 21.1014 7.0198 21.0591 6.96915 21.0321C6.9185 21.0051 6.86063 20.9948 6.80375 21.0025C5.97298 21.1042 5.20008 21.4808 4.60813 22.0725C3.13875 23.5431 3 29 3 29C3 29 8.46 28.8613 9.92937 27.3906C10.5229 26.7992 10.9 26.0251 11 25.1931C11.0231 24.9319 10.705 24.7763 10.525 24.9644Z" fill="#EDF1FF"/>
</svg>
