<svg width="21" height="20" viewBox="0 0 21 20" fill="none" xmlns="http://www.w3.org/2000/svg">
<g clip-path="url(#clip0_286_2505)">
<path fill-rule="evenodd" clip-rule="evenodd" d="M17.5995 17.1598C18.1895 16.2598 18.4095 15.7998 18.8595 14.7897C15.5394 13.5297 15.0094 8.7996 18.2895 6.98956C17.2895 5.72953 15.8794 4.99951 14.5494 4.99951C13.5894 4.99951 12.9294 5.24952 12.3394 5.47952C11.8394 5.66953 11.3893 5.83953 10.8293 5.83953C10.2293 5.83953 9.6993 5.64953 9.13929 5.44952C8.53928 5.22952 7.89929 4.99951 7.09927 4.99951C5.60924 4.99951 4.0192 5.90953 3.00918 7.46957C1.58915 9.66962 1.83915 13.7897 4.12921 17.3098C4.94923 18.5698 6.04926 19.9799 7.47929 19.9999C8.07931 20.0099 8.46931 19.8298 8.89929 19.6398C9.3893 19.4198 9.91931 19.1798 10.8493 19.1798C11.7794 19.1698 12.2994 19.4198 12.7894 19.6398C13.2094 19.8298 13.5894 20.0099 14.1794 19.9999C15.6194 19.9799 16.7795 18.4198 17.5995 17.1598Z" fill="#292D32"/>
<path opacity="0.4" fill-rule="evenodd" clip-rule="evenodd" d="M14.3406 0C14.5006 1.10002 14.0506 2.19005 13.4606 2.95007C12.8306 3.77009 11.7306 4.4101 10.6706 4.3701C10.4806 3.31007 10.9706 2.22005 11.5706 1.49003C12.2406 0.690016 13.3706 0.0700016 14.3406 0Z" fill="#292D32"/>
</g>
<defs>
<clipPath id="clip0_286_2505">
<rect width="20" height="20" fill="white" transform="translate(0.5)"/>
</clipPath>
</defs>
</svg>
