<svg width="21" height="20" viewBox="0 0 21 20" fill="none" xmlns="http://www.w3.org/2000/svg">
<path fill-rule="evenodd" clip-rule="evenodd" d="M11.516 20H1.93722C1.3274 20 0.833374 19.5057 0.833374 18.8961V1.10384C0.833374 0.494106 1.32748 0 1.93722 0H19.7296C20.3392 0 20.8334 0.494106 20.8334 1.10384V18.8961C20.8334 19.5057 20.3391 20 19.7296 20H14.6331V12.2549H17.2328L17.622 9.23649H14.6331V7.30944C14.6331 6.43554 14.8758 5.84 16.1289 5.84L17.7273 5.8393V3.13962C17.4508 3.10284 16.502 3.02066 15.3982 3.02066C13.0937 3.02066 11.516 4.4273 11.516 7.0105V9.23649H8.90967V12.2549H11.516V20Z" fill="#4460A0"/>
</svg>
