<svg width="21" height="20" viewBox="0 0 21 20" fill="none" xmlns="http://www.w3.org/2000/svg">
<path d="M7.31166 1.21015C5.04666 1.98515 3.11666 3.68015 2.04166 5.82515C1.66666 6.56515 1.39666 7.35015 1.23166 8.16515C0.821657 10.1852 1.10666 12.3402 2.03666 14.1802C2.64166 15.3802 3.51166 16.4502 4.56166 17.2852C5.55666 18.0752 6.71166 18.6652 7.94166 18.9902C9.49166 19.4052 11.1417 19.3952 12.7017 19.0402C14.1117 18.7152 15.4467 18.0402 16.5117 17.0602C17.6367 16.0252 18.4417 14.6652 18.8667 13.2002C19.3317 11.6052 19.3917 9.90015 19.1017 8.26015C16.1867 8.26015 13.2667 8.26015 10.3517 8.26015C10.3517 9.47015 10.3517 10.6802 10.3517 11.8902C12.0417 11.8902 13.7317 11.8902 15.4217 11.8902C15.2267 13.0502 14.5367 14.1102 13.5617 14.7652C12.9467 15.1802 12.2417 15.4452 11.5117 15.5752C10.7817 15.7002 10.0217 15.7152 9.29166 15.5702C8.54666 15.4202 7.84166 15.1102 7.22166 14.6752C6.23166 13.9802 5.47666 12.9652 5.09166 11.8202C4.69666 10.6552 4.69166 9.36015 5.09166 8.20015C5.37166 7.38015 5.83166 6.62515 6.44166 6.00515C7.19166 5.23515 8.16666 4.68515 9.22166 4.46015C10.1217 4.27015 11.0717 4.30515 11.9517 4.57015C12.7017 4.79515 13.3917 5.21015 13.9567 5.75015C14.5267 5.18015 15.0967 4.61015 15.6667 4.04015C15.9667 3.73515 16.2817 3.44015 16.5717 3.12515C15.7067 2.32515 14.6867 1.68015 13.5767 1.27015C11.5767 0.530153 9.32666 0.515153 7.31166 1.21015Z" fill="#F0F0F0"/>
<path d="M7.31163 1.21024C9.32163 0.515243 11.5766 0.530243 13.5766 1.26524C14.6866 1.67524 15.7016 2.31524 16.5716 3.12024C16.2816 3.43524 15.9666 3.73024 15.6666 4.03524C15.0966 4.60524 14.5266 5.17524 13.9566 5.74524C13.3916 5.20524 12.7016 4.79524 11.9516 4.56524C11.0716 4.30024 10.1216 4.26024 9.22163 4.45524C8.17163 4.68024 7.19663 5.23024 6.44163 6.00024C5.83163 6.61524 5.37163 7.37524 5.09163 8.19524C4.07663 7.40524 3.06163 6.62024 2.04163 5.83024C3.11663 3.68024 5.04663 1.98524 7.31163 1.21024Z" fill="#EA4335"/>
<path d="M1.23682 8.16031C1.40182 7.35031 1.67182 6.56031 2.04682 5.82031C3.06182 6.61031 4.07682 7.39531 5.09682 8.18531C4.69682 9.35031 4.69682 10.6453 5.09682 11.8053C4.08182 12.5953 3.06682 13.3853 2.05182 14.1703C1.11183 12.3353 0.826825 10.1803 1.23682 8.16031Z" fill="#FBBC05"/>
<path d="M10.3517 8.25537C13.2667 8.25537 16.1867 8.25537 19.1018 8.25537C19.3918 9.89037 19.3268 11.5954 18.8668 13.1954C18.4418 14.6604 17.6368 16.0204 16.5117 17.0554C15.5267 16.2904 14.5417 15.5254 13.5567 14.7604C14.5317 14.1054 15.2217 13.0454 15.4167 11.8854C13.7267 11.8854 12.0367 11.8854 10.3467 11.8854C10.3517 10.6754 10.3517 9.46537 10.3517 8.25537Z" fill="#4285F4"/>
<path d="M2.04163 14.1751C3.05663 13.3901 4.07163 12.6001 5.08663 11.8101C5.47663 12.9551 6.22663 13.9701 7.21663 14.6651C7.83663 15.1001 8.54663 15.4101 9.28663 15.5601C10.0166 15.7101 10.7716 15.6901 11.5066 15.5651C12.2366 15.4351 12.9416 15.1701 13.5566 14.7551C14.5416 15.5201 15.5266 16.2851 16.5116 17.0501C15.4466 18.0351 14.1116 18.7051 12.7016 19.0301C11.1416 19.3851 9.49163 19.3951 7.94163 18.9801C6.71163 18.6551 5.55663 18.0701 4.56163 17.2751C3.51663 16.4451 2.64663 15.3751 2.04163 14.1751Z" fill="#34A853"/>
</svg>
