<svg width="32" height="32" viewBox="0 0 32 32" fill="none" xmlns="http://www.w3.org/2000/svg">
<path opacity="0.6" d="M13.4801 5.3335C13.3734 5.7335 13.3334 6.1735 13.3334 6.66683V10.6668H6.66675V8.00016C6.66675 6.5335 7.86675 5.3335 9.33341 5.3335H13.4801Z" fill="#E645B3"/>
<path d="M13.3334 25.3332V10.6665H6.66675C4.00008 10.6665 2.66675 11.9998 2.66675 14.6665V25.3332C2.66675 27.9998 4.00008 29.3332 6.66675 29.3332H17.3334C14.6667 29.3332 13.3334 27.9998 13.3334 25.3332ZM9.00008 22.6665C9.00008 23.2132 8.54675 23.6665 8.00008 23.6665C7.45341 23.6665 7.00008 23.2132 7.00008 22.6665V17.3332C7.00008 16.7865 7.45341 16.3332 8.00008 16.3332C8.54675 16.3332 9.00008 16.7865 9.00008 17.3332V22.6665Z" fill="#E645B3"/>
<path opacity="0.4" d="M18.6666 29.3332H17.3333C14.6666 29.3332 13.3333 27.9998 13.3333 25.3332V6.6665C13.3333 3.99984 14.6666 2.6665 17.3333 2.6665H25.3333C27.9999 2.6665 29.3333 3.99984 29.3333 6.6665V25.3332C29.3333 27.9998 27.9999 29.3332 25.3333 29.3332H23.9999" fill="#E645B3"/>
<path d="M24.0001 23.9998V29.3332H18.6667V23.9998C18.6667 23.2665 19.2667 22.6665 20.0001 22.6665H22.6667C23.4001 22.6665 24.0001 23.2665 24.0001 23.9998ZM18.6667 18.3332C18.1201 18.3332 17.6667 17.8798 17.6667 17.3332V10.6665C17.6667 10.1198 18.1201 9.6665 18.6667 9.6665C19.2134 9.6665 19.6667 10.1198 19.6667 10.6665V17.3332C19.6667 17.8798 19.2134 18.3332 18.6667 18.3332ZM24.0001 18.3332C23.4534 18.3332 23.0001 17.8798 23.0001 17.3332V10.6665C23.0001 10.1198 23.4534 9.6665 24.0001 9.6665C24.5467 9.6665 25.0001 10.1198 25.0001 10.6665V17.3332C25.0001 17.8798 24.5467 18.3332 24.0001 18.3332Z" fill="#E645B3"/>
</svg>
