<svg width="17" height="17" viewBox="0 0 17 17" fill="none" xmlns="http://www.w3.org/2000/svg">
<g clip-path="url(#clip0_390_953)">
<path d="M2.97551 14.2094C2.21143 13.4714 1.60197 12.5887 1.1827 11.6126C0.763426 10.6366 0.542736 9.58683 0.533505 8.52459C0.524275 7.46236 0.726688 6.40892 1.12894 5.42575C1.53118 4.44258 2.12521 3.54937 2.87635 2.79822C3.62749 2.04708 4.52071 1.45306 5.50388 1.05081C6.48705 0.648563 7.54048 0.44615 8.60272 0.45538C9.66495 0.464611 10.7147 0.685301 11.6907 1.10457C12.6668 1.52384 13.5495 2.1333 14.2875 2.89738C15.7448 4.4062 16.5511 6.42702 16.5329 8.52459C16.5147 10.6222 15.6733 12.6287 14.1901 14.1119C12.7068 15.5952 10.7003 16.4365 8.60272 16.4548C6.50514 16.473 4.48433 15.6666 2.97551 14.2094ZM13.1595 13.0814C14.3604 11.8805 15.0351 10.2517 15.0351 8.55338C15.0351 6.85505 14.3604 5.22628 13.1595 4.02538C11.9586 2.82448 10.3298 2.14982 8.63151 2.14982C6.93318 2.14982 5.30441 2.82448 4.10351 4.02538C2.90261 5.22628 2.22795 6.85505 2.22795 8.55338C2.22795 10.2517 2.90261 11.8805 4.10351 13.0814C5.30441 14.2823 6.93318 14.9569 8.63151 14.9569C10.3298 14.9569 11.9586 14.2823 13.1595 13.0814ZM5.99151 7.98538L7.83151 9.83338L11.2715 6.39338L12.3915 7.52938L7.83151 12.0734L4.87151 9.11338L5.99151 7.97738V7.98538Z" fill="#0F1733"/>
</g>
<defs>
<clipPath id="clip0_390_953">
<rect width="16" height="16" fill="white" transform="translate(0.631836 0.552734)"/>
</clipPath>
</defs>
</svg>
