<svg width="32" height="32" viewBox="0 0 32 32" fill="none" xmlns="http://www.w3.org/2000/svg">
<path opacity="0.4" d="M29.3334 10.6665V21.5865C29.3334 26.4398 26.4401 29.3332 21.5867 29.3332H10.4134C5.56008 29.3332 2.66675 26.4398 2.66675 21.5865V10.6798L29.3334 10.6665Z" fill="#2D54E5"/>
<path d="M12.0013 23.667C11.8547 23.667 11.6947 23.627 11.5613 23.5604C10.5347 23.0404 9.65467 22.267 9.01467 21.307C8.48133 20.507 8.48133 19.4804 9.01467 18.6804C9.65467 17.7204 10.5347 16.947 11.5613 16.4404C12.0547 16.187 12.6547 16.4004 12.908 16.8937C13.1613 17.387 12.9613 17.987 12.4547 18.2404C11.7347 18.6004 11.1213 19.147 10.6813 19.8137C10.6013 19.9337 10.6013 20.0937 10.6813 20.227C11.1213 20.8937 11.7347 21.4404 12.4547 21.8004C12.948 22.0537 13.148 22.6537 12.908 23.147C12.7213 23.467 12.3613 23.667 12.0013 23.667ZM20.279 23.667C19.9057 23.667 19.559 23.467 19.3857 23.1204C19.1323 22.627 19.3323 22.027 19.839 21.7737C20.559 21.4137 21.1723 20.867 21.6123 20.2004C21.6923 20.0804 21.6923 19.9204 21.6123 19.787C21.1723 19.1204 20.559 18.5737 19.839 18.2137C19.3457 17.9604 19.1457 17.3604 19.3857 16.867C19.639 16.3737 20.239 16.1737 20.7323 16.4137C21.759 16.9337 22.639 17.707 23.279 18.667C23.8123 19.467 23.8123 20.4937 23.279 21.2937C22.639 22.2537 21.759 23.027 20.7323 23.5337C20.5723 23.627 20.4257 23.667 20.279 23.667ZM29.3334 10.4132V10.6665L2.66675 10.6798V10.4132C2.66675 5.55984 5.56008 2.6665 10.4134 2.6665H21.5867C26.4401 2.6665 29.3334 5.55984 29.3334 10.4132Z" fill="#2D54E5"/>
</svg>
