<svg width="486" height="405" viewBox="0 0 486 405" fill="none" xmlns="http://www.w3.org/2000/svg">
<path d="M474.527 6C474.527 8.94552 476.915 11.3333 479.86 11.3333C482.806 11.3333 485.193 8.94552 485.193 6C485.193 3.05448 482.806 0.666667 479.86 0.666667C476.915 0.666667 474.527 3.05448 474.527 6ZM6.03636 405L11.6859 394.929L0.139824 395.072L6.03636 405ZM7.01016 402.873C7.00542 402.321 6.55388 401.877 6.00161 401.882C5.44935 401.886 5.00549 402.338 5.01023 402.89L7.01016 402.873ZM5.0061 398.701C5.00238 399.253 5.44706 399.704 5.99934 399.708C6.55161 399.712 7.00233 399.267 7.00606 398.715L5.0061 398.701ZM7.06547 394.64C7.07792 394.088 6.64042 393.631 6.08827 393.618C5.53613 393.606 5.07843 394.043 5.06598 394.595L7.06547 394.64ZM5.18927 390.572C5.16782 391.124 5.59781 391.588 6.14968 391.61C6.70154 391.631 7.16631 391.201 7.18776 390.649L5.18927 390.572ZM7.37231 386.741C7.40303 386.189 6.98091 385.718 6.42948 385.687C5.87805 385.656 5.40613 386.078 5.37541 386.63L7.37231 386.741ZM5.6238 382.768C5.58354 383.319 5.99743 383.798 6.54824 383.838C7.09906 383.879 7.57822 383.465 7.61848 382.914L5.6238 382.768ZM7.92563 379.168C7.97571 378.618 7.57043 378.131 7.02042 378.081C6.47041 378.031 5.98395 378.436 5.93387 378.986L7.92563 379.168ZM6.35116 374.866C6.28983 375.415 6.68506 375.91 7.23393 375.971C7.7828 376.033 8.27746 375.637 8.33879 375.088L6.35116 374.866ZM8.83809 371.016C8.91128 370.469 8.52685 369.966 7.97944 369.892C7.43202 369.819 6.92892 370.204 6.85573 370.751L8.83809 371.016ZM7.43797 366.735C7.35256 367.281 7.72566 367.793 8.2713 367.878C8.81694 367.963 9.32851 367.59 9.41391 367.045L7.43797 366.735ZM10.0653 363.173C10.1633 362.63 9.80206 362.11 9.25853 362.012C8.715 361.914 8.19498 362.275 8.09702 362.818L10.0653 363.173ZM8.83202 358.999C8.72118 359.54 9.06993 360.068 9.61097 360.179C10.152 360.29 10.6805 359.941 10.7913 359.4L8.83202 358.999ZM11.591 355.724C11.7151 355.186 11.3794 354.649 10.8412 354.525C10.303 354.401 9.76618 354.736 9.64213 355.275L11.591 355.724ZM10.6374 351.217C10.4982 351.751 10.8187 352.297 11.3531 352.436C11.8876 352.576 12.4337 352.255 12.5729 351.721L10.6374 351.217ZM13.6509 347.814C13.8056 347.284 13.5013 346.729 12.9711 346.574C12.441 346.419 11.8857 346.724 11.731 347.254L13.6509 347.814ZM12.9163 343.408C12.7456 343.933 13.0331 344.497 13.5584 344.668C14.0836 344.838 14.6478 344.551 14.8184 344.026L12.9163 343.408ZM16.0742 340.352C16.261 339.833 15.9911 339.26 15.4713 339.073C14.9516 338.886 14.3788 339.156 14.192 339.676L16.0742 340.352ZM15.5571 336.057C15.3539 336.571 15.6056 337.152 16.1192 337.355C16.6327 337.558 17.2137 337.307 17.4169 336.793L15.5571 336.057ZM18.956 333.091C19.1769 332.584 18.9456 331.995 18.4394 331.774C17.9333 331.553 17.3438 331.784 17.1229 332.291L18.956 333.091ZM18.8308 328.563C18.5916 329.061 18.8012 329.658 19.299 329.897C19.7968 330.137 20.3943 329.927 20.6335 329.429L18.8308 328.563ZM22.4113 325.898C22.6689 325.41 22.4816 324.805 21.993 324.547C21.5045 324.29 20.8996 324.477 20.6421 324.965L22.4113 325.898ZM22.5551 321.496C22.2793 321.975 22.4436 322.586 22.9221 322.862C23.4006 323.138 24.0121 322.973 24.2879 322.495L22.5551 321.496ZM26.2631 319.214C26.557 318.746 26.4162 318.129 25.9486 317.835C25.481 317.541 24.8637 317.682 24.5698 318.149L26.2631 319.214ZM26.8257 314.718C26.5128 315.173 26.6282 315.796 27.0833 316.109C27.5384 316.422 28.161 316.306 28.4739 315.851L26.8257 314.718ZM30.7911 312.624C31.1225 312.183 31.033 311.556 30.5911 311.224C30.1493 310.893 29.5225 310.983 29.1911 311.424L30.7911 312.624ZM31.6639 308.266C31.3146 308.693 31.3781 309.323 31.8059 309.673C32.2336 310.022 32.8636 309.958 33.2129 309.531L31.6639 308.266ZM35.7374 306.567C36.1041 306.154 36.0666 305.522 35.6536 305.155C35.2406 304.788 34.6085 304.826 34.2418 305.239L35.7374 306.567ZM36.9685 302.293C36.5849 302.691 36.5962 303.324 36.9936 303.707C37.391 304.091 38.024 304.08 38.4076 303.682L36.9685 302.293ZM41.2136 300.893C41.6133 300.512 41.6283 299.879 41.2472 299.48C40.8661 299.08 40.2331 299.065 39.8334 299.446L41.2136 300.893ZM42.8022 296.729C42.3873 297.093 42.3464 297.725 42.7109 298.14C43.0754 298.555 43.7072 298.596 44.1222 298.231L42.8022 296.729ZM47.1313 295.693C47.5605 295.346 47.6266 294.716 47.279 294.287C46.9314 293.858 46.3017 293.792 45.8725 294.139L47.1313 295.693ZM49.038 291.676C48.5956 292.007 48.505 292.634 48.8356 293.076C49.1663 293.518 49.7929 293.609 50.2353 293.278L49.038 291.676ZM53.4257 290.987C53.8802 290.673 53.9944 290.05 53.6807 289.596C53.367 289.141 52.7442 289.027 52.2896 289.341L53.4257 290.987ZM55.6344 287.122C55.1687 287.419 55.0319 288.037 55.3288 288.503C55.6257 288.968 56.2439 289.105 56.7096 288.808L55.6344 287.122ZM60.0851 286.74C60.561 286.459 60.7195 285.846 60.4392 285.37C60.1589 284.895 59.5458 284.736 59.07 285.016L60.0851 286.74ZM62.5939 283.021C62.1088 283.285 61.9296 283.892 62.1937 284.377C62.4577 284.862 63.065 285.041 63.5501 284.777L62.5939 283.021ZM67.0101 282.965C67.5033 282.716 67.7016 282.115 67.4531 281.622C67.2045 281.129 66.6032 280.93 66.11 281.179L67.0101 282.965ZM69.7002 279.438C69.1997 279.671 68.9833 280.266 69.2168 280.767C69.4503 281.267 70.0454 281.484 70.5459 281.25L69.7002 279.438ZM74.1604 279.627C74.6674 279.408 74.9009 278.82 74.6819 278.313C74.463 277.806 73.8745 277.572 73.3674 277.791L74.1604 279.627ZM77.1096 276.237C76.5967 276.441 76.3471 277.023 76.552 277.536C76.7569 278.049 77.3388 278.299 77.8516 278.094L77.1096 276.237ZM81.5427 276.674C82.0607 276.483 82.3252 275.907 82.1335 275.389C81.9418 274.871 81.3665 274.607 80.8486 274.799L81.5427 276.674ZM84.5786 273.469C84.0562 273.648 83.778 274.217 83.9573 274.74C84.1365 275.262 84.7053 275.54 85.2277 275.361L84.5786 273.469ZM88.978 274.122C89.5044 273.955 89.7954 273.392 89.628 272.866C89.4607 272.34 88.8984 272.049 88.3721 272.216L88.978 274.122ZM92.2271 271.036C91.6973 271.192 91.3942 271.748 91.5502 272.278C91.7062 272.808 92.2621 273.111 92.7919 272.955L92.2271 271.036ZM96.6675 271.857C97.2004 271.712 97.5147 271.162 97.3695 270.63C97.2244 270.097 96.6747 269.782 96.1419 269.928L96.6675 271.857ZM99.9635 268.925C99.4281 269.06 99.1036 269.604 99.2389 270.139C99.3741 270.675 99.9178 270.999 100.453 270.864L99.9635 268.925ZM104.271 269.935C104.809 269.81 105.142 269.272 105.016 268.734C104.891 268.196 104.353 267.862 103.815 267.988L104.271 269.935ZM107.716 267.109C107.176 267.226 106.834 267.758 106.951 268.298C107.068 268.838 107.6 269.18 108.14 269.063L107.716 267.109ZM112.059 268.246C112.6 268.137 112.951 267.61 112.843 267.069C112.734 266.527 112.207 266.176 111.665 266.285L112.059 268.246ZM115.656 265.515C115.112 265.615 114.754 266.137 114.855 266.68C114.955 267.223 115.477 267.582 116.02 267.481L115.656 265.515ZM119.866 266.794C120.41 266.7 120.776 266.183 120.682 265.639C120.589 265.095 120.071 264.729 119.527 264.823L119.866 266.794ZM123.439 264.175C122.893 264.262 122.522 264.775 122.608 265.32C122.695 265.866 123.208 266.237 123.753 266.151L123.439 264.175ZM127.681 265.549C128.227 265.468 128.605 264.96 128.524 264.414C128.444 263.867 127.935 263.49 127.389 263.57L127.681 265.549ZM131.376 263.005C130.829 263.08 130.446 263.584 130.521 264.131C130.595 264.678 131.099 265.061 131.646 264.987L131.376 263.005ZM135.649 264.462C136.197 264.393 136.586 263.893 136.517 263.345C136.448 262.797 135.948 262.409 135.4 262.478L135.649 264.462ZM139.309 262.004C138.76 262.068 138.368 262.565 138.432 263.113C138.496 263.662 138.992 264.055 139.541 263.991L139.309 262.004ZM143.462 263.551C144.011 263.491 144.408 262.998 144.349 262.449C144.289 261.9 143.796 261.503 143.247 261.562L143.462 263.551ZM147.215 261.15C146.665 261.205 146.264 261.695 146.319 262.244C146.374 262.794 146.864 263.195 147.413 263.14L147.215 261.15ZM151.394 262.757C151.944 262.706 152.349 262.219 152.298 261.669C152.247 261.119 151.76 260.715 151.21 260.766L151.394 262.757ZM155.233 260.407C154.683 260.454 154.275 260.939 154.322 261.489C154.369 262.039 154.853 262.447 155.404 262.4L155.233 260.407ZM159.348 262.074C159.898 262.03 160.309 261.549 160.265 260.998C160.222 260.447 159.74 260.037 159.189 260.08L159.348 262.074ZM163.137 259.777C162.587 259.818 162.173 260.298 162.214 260.848C162.255 261.399 162.734 261.813 163.285 261.772L163.137 259.777ZM167.245 261.489C167.796 261.451 168.212 260.974 168.174 260.423C168.136 259.872 167.659 259.456 167.108 259.494L167.245 261.489ZM171.098 259.228C170.547 259.263 170.129 259.739 170.165 260.29C170.2 260.841 170.676 261.259 171.227 261.224L171.098 259.228ZM175.229 260.974C175.781 260.941 176.201 260.467 176.167 259.916C176.134 259.365 175.66 258.945 175.109 258.978L175.229 260.974ZM179.106 258.744C178.555 258.776 178.133 259.248 178.165 259.799C178.196 260.351 178.668 260.772 179.22 260.741L179.106 258.744ZM183.166 260.524C183.718 260.494 184.141 260.023 184.111 259.472C184.082 258.92 183.611 258.497 183.059 258.527L183.166 260.524ZM187.028 258.319C186.476 258.347 186.052 258.817 186.08 259.369C186.108 259.921 186.578 260.345 187.129 260.317L187.028 258.319ZM191.108 260.119C191.659 260.092 192.085 259.623 192.058 259.072C192.031 258.52 191.562 258.094 191.011 258.121L191.108 260.119ZM195.007 257.931C194.455 257.957 194.029 258.425 194.055 258.976C194.08 259.528 194.549 259.954 195.1 259.929L195.007 257.931ZM199.106 259.744C199.658 259.719 200.084 259.251 200.059 258.7C200.034 258.148 199.567 257.721 199.015 257.746L199.106 259.744ZM202.985 257.568C202.433 257.593 202.006 258.06 202.03 258.611C202.055 259.163 202.522 259.591 203.074 259.566L202.985 257.568ZM207.04 259.391C207.592 259.367 208.02 258.9 207.996 258.349C207.971 257.797 207.505 257.369 206.953 257.393L207.04 259.391ZM210.93 257.22C210.378 257.244 209.95 257.711 209.974 258.263C209.998 258.814 210.465 259.242 211.016 259.218L210.93 257.22ZM215.001 259.045C215.553 259.021 215.981 258.554 215.957 258.002C215.933 257.45 215.466 257.022 214.914 257.047L215.001 259.045ZM218.905 256.871C218.354 256.896 217.926 257.363 217.95 257.915C217.975 258.466 218.442 258.894 218.994 258.869L218.905 256.871ZM222.987 258.691C223.538 258.666 223.965 258.199 223.941 257.647C223.916 257.096 223.448 256.668 222.897 256.693L222.987 258.691ZM226.867 256.512C226.316 256.537 225.889 257.005 225.915 257.557C225.94 258.109 226.408 258.535 226.96 258.51L226.867 256.512ZM230.938 258.322C231.49 258.296 231.915 257.827 231.889 257.275C231.862 256.724 231.394 256.298 230.842 256.324L230.938 258.322ZM234.819 256.13C234.268 256.157 233.843 256.627 233.871 257.178C233.898 257.73 234.368 258.155 234.919 258.127L234.819 256.13ZM238.903 257.923C239.454 257.894 239.878 257.424 239.849 256.872C239.82 256.321 239.35 255.897 238.798 255.926L238.903 257.923ZM242.778 255.712C242.226 255.742 241.804 256.214 241.834 256.766C241.865 257.317 242.337 257.739 242.888 257.709L242.778 255.712ZM246.873 257.483C247.424 257.451 247.845 256.978 247.813 256.426C247.781 255.875 247.308 255.454 246.756 255.486L246.873 257.483ZM250.732 255.248C250.181 255.282 249.762 255.756 249.796 256.307C249.83 256.859 250.305 257.278 250.856 257.244L250.732 255.248ZM254.838 256.99C255.389 256.954 255.806 256.477 255.77 255.926C255.734 255.375 255.257 254.958 254.706 254.994L254.838 256.99ZM258.677 254.725C258.126 254.763 257.711 255.241 257.749 255.792C257.788 256.343 258.266 256.758 258.817 256.72L258.677 254.725ZM262.792 256.432C263.343 256.391 263.756 255.911 263.715 255.36C263.674 254.81 263.194 254.397 262.643 254.438L262.792 256.432ZM266.604 254.132C266.054 254.176 265.643 254.658 265.687 255.208C265.731 255.759 266.213 256.17 266.763 256.126L266.604 254.132ZM270.75 255.797C271.3 255.75 271.708 255.266 271.661 254.715C271.614 254.165 271.13 253.757 270.58 253.804L270.75 255.797ZM274.552 253.454C274.002 253.504 273.597 253.99 273.647 254.54C273.697 255.09 274.183 255.495 274.733 255.445L274.552 253.454ZM278.709 255.07C279.259 255.017 279.661 254.528 279.608 253.978C279.554 253.428 279.065 253.026 278.515 253.08L278.709 255.07ZM282.469 252.681C281.92 252.738 281.521 253.23 281.578 253.779C281.636 254.328 282.127 254.727 282.677 254.67L282.469 252.681ZM286.634 254.243C287.183 254.182 287.578 253.687 287.517 253.138C287.456 252.59 286.961 252.194 286.412 252.255L286.634 254.243ZM290.355 251.801C289.807 251.866 289.415 252.364 289.481 252.912C289.546 253.46 290.043 253.852 290.592 253.787L290.355 251.801ZM294.574 253.296C295.122 253.226 295.509 252.726 295.44 252.178C295.37 251.63 294.869 251.242 294.321 251.312L294.574 253.296ZM298.273 250.792C297.726 250.866 297.343 251.37 297.417 251.917C297.492 252.465 297.996 252.848 298.543 252.774L298.273 250.792ZM302.498 252.218C303.044 252.138 303.423 251.631 303.344 251.084C303.264 250.538 302.757 250.159 302.21 250.238L302.498 252.218ZM306.131 249.65C305.586 249.735 305.212 250.246 305.296 250.792C305.381 251.337 305.892 251.711 306.438 251.627L306.131 249.65ZM310.361 250.999C310.906 250.91 311.275 250.395 311.185 249.85C311.095 249.305 310.58 248.936 310.035 249.026L310.361 250.999ZM313.963 248.357C313.419 248.453 313.056 248.971 313.151 249.515C313.247 250.059 313.765 250.422 314.309 250.327L313.963 248.357ZM318.26 249.61C318.802 249.508 319.16 248.986 319.058 248.443C318.957 247.9 318.434 247.542 317.891 247.644L318.26 249.61ZM321.799 246.889C321.257 246.997 320.906 247.524 321.014 248.065C321.121 248.607 321.648 248.958 322.19 248.85L321.799 246.889ZM326.099 248.047C326.639 247.932 326.984 247.402 326.87 246.861C326.755 246.321 326.224 245.976 325.684 246.09L326.099 248.047ZM329.546 245.247C329.008 245.368 328.669 245.903 328.79 246.442C328.912 246.981 329.447 247.319 329.986 247.198L329.546 245.247ZM333.863 246.298C334.4 246.17 334.731 245.63 334.603 245.093C334.474 244.556 333.935 244.224 333.398 244.353L333.863 246.298ZM337.278 243.397C336.743 243.533 336.419 244.077 336.555 244.612C336.691 245.147 337.235 245.471 337.77 245.335L337.278 243.397ZM341.651 244.32C342.185 244.176 342.5 243.627 342.357 243.094C342.213 242.561 341.664 242.245 341.131 242.389L341.651 244.32ZM344.955 241.327C344.424 241.479 344.117 242.033 344.268 242.564C344.42 243.095 344.974 243.402 345.505 243.25L344.955 241.327ZM349.329 242.125C349.858 241.965 350.157 241.407 349.997 240.878C349.836 240.349 349.278 240.051 348.75 240.211L349.329 242.125ZM352.513 239.038C351.987 239.206 351.698 239.769 351.866 240.295C352.035 240.821 352.598 241.111 353.124 240.942L352.513 239.038ZM356.937 239.683C357.46 239.505 357.74 238.937 357.563 238.415C357.385 237.892 356.817 237.612 356.294 237.789L356.937 239.683ZM360.052 236.475C359.532 236.662 359.262 237.235 359.449 237.755C359.636 238.275 360.209 238.544 360.729 238.357L360.052 236.475ZM364.486 236.967C365.002 236.77 365.261 236.193 365.064 235.677C364.868 235.16 364.29 234.901 363.774 235.098L364.486 236.967ZM367.459 233.655C366.947 233.861 366.699 234.443 366.905 234.956C367.112 235.468 367.694 235.716 368.206 235.51L367.459 233.655ZM371.89 233.984C372.398 233.768 372.635 233.181 372.419 232.672C372.202 232.164 371.615 231.928 371.107 232.144L371.89 233.984ZM374.734 230.556C374.23 230.783 374.006 231.375 374.233 231.878C374.459 232.382 375.051 232.606 375.555 232.38L374.734 230.556ZM379.197 230.694C379.696 230.457 379.908 229.86 379.671 229.362C379.433 228.863 378.837 228.651 378.338 228.888L379.197 230.694ZM381.9 227.146C381.406 227.394 381.207 227.995 381.455 228.489C381.703 228.982 382.304 229.181 382.798 228.933L381.9 227.146ZM386.355 227.095C386.843 226.836 387.029 226.231 386.77 225.743C386.511 225.255 385.905 225.07 385.417 225.329L386.355 227.095ZM388.89 223.434C388.409 223.704 388.237 224.313 388.507 224.795C388.777 225.277 389.387 225.448 389.869 225.178L388.89 223.434ZM393.335 223.181C393.81 222.899 393.968 222.286 393.686 221.811C393.405 221.335 392.791 221.178 392.316 221.46L393.335 223.181ZM395.692 219.406C395.224 219.699 395.081 220.316 395.374 220.784C395.667 221.252 396.284 221.395 396.752 221.102L395.692 219.406ZM400.121 218.939C400.582 218.635 400.709 218.015 400.405 217.554C400.101 217.093 399.481 216.966 399.02 217.27L400.121 218.939ZM402.297 215.049C401.844 215.364 401.732 215.988 402.048 216.441C402.363 216.894 402.987 217.006 403.44 216.69L402.297 215.049ZM406.708 214.353C407.153 214.027 407.249 213.401 406.922 212.956C406.595 212.51 405.969 212.415 405.524 212.742L406.708 214.353ZM408.697 210.348C408.261 210.686 408.181 211.314 408.519 211.751C408.858 212.187 409.486 212.267 409.922 211.928L408.697 210.348ZM413.03 209.455C413.457 209.106 413.521 208.476 413.171 208.048C412.822 207.62 412.192 207.557 411.764 207.906L413.03 209.455ZM414.779 205.377C414.361 205.737 414.314 206.369 414.674 206.787C415.035 207.205 415.666 207.252 416.085 206.892L414.779 205.377ZM419.085 204.237C419.494 203.865 419.524 203.233 419.153 202.824C418.781 202.415 418.149 202.385 417.74 202.757L419.085 204.237ZM420.646 200.044C420.248 200.426 420.234 201.059 420.616 201.458C420.999 201.857 421.632 201.87 422.03 201.488L420.646 200.044ZM424.919 198.644C425.307 198.251 425.304 197.618 424.911 197.23C424.518 196.842 423.885 196.845 423.497 197.238L424.919 198.644ZM426.217 194.414C425.839 194.816 425.86 195.449 426.262 195.827C426.665 196.205 427.298 196.185 427.676 195.782L426.217 194.414ZM430.345 192.862C430.713 192.449 430.676 191.817 430.264 191.45C429.851 191.083 429.219 191.119 428.852 191.532L430.345 192.862ZM431.432 188.558C431.075 188.98 431.128 189.611 431.55 189.967C431.972 190.324 432.603 190.271 432.959 189.849L431.432 188.558ZM435.516 186.742C435.862 186.311 435.792 185.681 435.361 185.336C434.93 184.991 434.301 185.06 433.956 185.491L435.516 186.742ZM436.423 182.329C436.089 182.769 436.174 183.396 436.614 183.73C437.054 184.064 437.681 183.978 438.015 183.539L436.423 182.329ZM440.434 180.268C440.756 179.82 440.655 179.195 440.206 178.872C439.758 178.55 439.133 178.651 438.811 179.1L440.434 180.268ZM441.025 175.943C440.713 176.399 440.83 177.021 441.286 177.333C441.742 177.645 442.364 177.528 442.676 177.072L441.025 175.943ZM444.864 173.787C445.165 173.324 445.033 172.705 444.57 172.404C444.107 172.103 443.487 172.235 443.187 172.699L444.864 173.787ZM445.294 169.364C445.005 169.835 445.151 170.451 445.622 170.74C446.092 171.03 446.708 170.883 446.997 170.413L445.294 169.364ZM449.074 166.947C449.353 166.47 449.192 165.858 448.714 165.579C448.237 165.301 447.625 165.462 447.347 165.939L449.074 166.947ZM449.344 162.422C449.077 162.905 449.252 163.514 449.736 163.781C450.219 164.048 450.827 163.872 451.094 163.389L449.344 162.422ZM453.018 159.81C453.274 159.321 453.085 158.717 452.596 158.461C452.107 158.205 451.502 158.394 451.246 158.883L453.018 159.81ZM452.987 155.468C452.741 155.963 452.943 156.563 453.438 156.809C453.933 157.054 454.533 156.852 454.778 156.358L452.987 155.468ZM456.488 152.824C456.723 152.324 456.509 151.728 456.009 151.493C455.509 151.258 454.913 151.472 454.678 151.971L456.488 152.824ZM456.319 148.392C456.094 148.896 456.32 149.488 456.825 149.713C457.329 149.938 457.92 149.711 458.145 149.207L456.319 148.392ZM459.751 145.506C459.966 144.997 459.728 144.411 459.219 144.196C458.71 143.981 458.123 144.22 457.909 144.728L459.751 145.506ZM459.447 140.98C459.242 141.493 459.492 142.075 460.005 142.279C460.518 142.484 461.1 142.234 461.304 141.721L459.447 140.98ZM462.804 137.85C462.998 137.333 462.737 136.756 462.22 136.562C461.703 136.367 461.127 136.629 460.932 137.145L462.804 137.85ZM462.253 133.539C462.067 134.059 462.339 134.631 462.859 134.816C463.379 135.002 463.951 134.73 464.137 134.21L462.253 133.539ZM465.407 130.544C465.583 130.021 465.302 129.453 464.778 129.277C464.255 129.101 463.688 129.382 463.511 129.905L465.407 130.544ZM464.725 126.199C464.558 126.725 464.849 127.287 465.375 127.455C465.901 127.622 466.464 127.331 466.631 126.805L464.725 126.199ZM467.809 122.993C467.968 122.464 467.668 121.906 467.139 121.747C466.61 121.589 466.052 121.889 465.893 122.418L467.809 122.993ZM467.016 118.562C466.866 119.094 467.175 119.646 467.706 119.796C468.238 119.946 468.79 119.637 468.94 119.106L467.016 118.562ZM470.025 115.143C470.166 114.609 469.848 114.062 469.314 113.92C468.78 113.779 468.233 114.097 468.091 114.631L470.025 115.143ZM469.12 110.623C468.987 111.159 469.313 111.701 469.849 111.834C470.385 111.967 470.928 111.641 471.061 111.105L469.12 110.623ZM471.967 107.341C472.093 106.803 471.759 106.266 471.221 106.14C470.683 106.015 470.145 106.349 470.02 106.887L471.967 107.341ZM470.864 103.152C470.746 103.691 471.088 104.225 471.627 104.343C472.167 104.461 472.7 104.119 472.818 103.58L470.864 103.152ZM473.629 99.7555C473.74 99.2145 473.391 98.686 472.85 98.575C472.309 98.464 471.781 98.8127 471.67 99.3537L473.629 99.7555ZM472.435 95.4913C472.332 96.0337 472.687 96.5576 473.23 96.6615C473.772 96.7654 474.296 96.4098 474.4 95.8674L472.435 95.4913ZM475.13 91.915C475.227 91.3713 474.865 90.852 474.321 90.7551C473.777 90.6582 473.258 91.0205 473.161 91.5642L475.13 91.915ZM473.846 87.5718C473.756 88.1168 474.125 88.6314 474.67 88.7214C475.215 88.8114 475.729 88.4426 475.819 87.8977L473.846 87.5718ZM476.468 83.8151C476.551 83.2692 476.176 82.7591 475.63 82.6759C475.084 82.5926 474.574 82.9678 474.49 83.5137L476.468 83.8151ZM475.092 79.4009C475.015 79.9479 475.396 80.4534 475.943 80.53C476.49 80.6066 476.996 80.2253 477.072 79.6783L475.092 79.4009ZM477.579 75.9118C477.65 75.3641 477.263 74.8627 476.716 74.7919C476.168 74.7212 475.667 75.1078 475.596 75.6556L477.579 75.9118ZM476.066 71.8564C476.001 72.4048 476.393 72.9021 476.942 72.9672C477.49 73.0322 477.987 72.6403 478.052 72.0918L476.066 71.8564ZM478.491 68.2179C478.551 67.6688 478.154 67.1755 477.605 67.1162C477.055 67.0568 476.562 67.4538 476.503 68.0029L478.491 68.2179ZM476.905 64.0946C476.852 64.6443 477.253 65.1335 477.803 65.1873C478.353 65.2411 478.842 64.8392 478.896 64.2895L476.905 64.0946ZM479.266 60.3065C479.314 59.7563 478.907 59.2711 478.357 59.2228C477.807 59.1744 477.322 59.5812 477.273 60.1314L479.266 60.3065ZM477.607 56.1127C477.564 56.6633 477.975 57.1445 478.526 57.1874C479.076 57.2304 479.558 56.8189 479.601 56.2683L477.607 56.1127ZM479.9 52.1746C479.938 51.6236 479.522 51.1464 478.971 51.1087C478.42 51.071 477.943 51.4871 477.905 52.0381L479.9 52.1746ZM478.168 47.9071C478.135 48.4585 478.556 48.9318 479.107 48.9643C479.659 48.9968 480.132 48.5762 480.165 48.0249L478.168 47.9071ZM480.386 43.95C480.414 43.3985 479.989 42.9289 479.438 42.9014C478.886 42.8738 478.417 43.2986 478.389 43.8502L480.386 43.95ZM478.563 40.0654C478.54 40.6172 478.968 41.0833 479.52 41.1064C480.072 41.1295 480.538 40.7009 480.561 40.1491L478.563 40.0654ZM480.707 36.3027C480.725 35.7507 480.293 35.2881 479.741 35.2694C479.189 35.2507 478.727 35.683 478.708 36.2349L480.707 36.3027ZM478.824 32.3585C478.81 32.9106 479.246 33.3698 479.798 33.3842C480.35 33.3986 480.809 32.9627 480.823 32.4106L478.824 32.3585ZM480.911 28.4725C480.921 27.9203 480.481 27.4644 479.929 27.4543C479.377 27.4442 478.921 27.8836 478.911 28.4358L480.911 28.4725ZM478.969 24.4664C478.963 25.0187 479.406 25.4712 479.958 25.4771C480.51 25.4831 480.963 25.0402 480.969 24.4879L478.969 24.4664ZM480.997 20.4569C480.999 19.9046 480.553 19.4554 480 19.4536C479.448 19.4518 478.999 19.898 478.997 20.4503L480.997 20.4569ZM478.995 16.387C478.998 16.9393 479.447 17.3852 479.999 17.383C480.552 17.3807 480.998 16.9312 480.995 16.3789L478.995 16.387ZM480.964 12.2539C480.958 11.7016 480.505 11.259 479.953 11.2652C479.4 11.2714 478.958 11.7241 478.964 12.2764L480.964 12.2539ZM478.902 8.11808C478.913 8.67027 479.368 9.1097 479.921 9.09958C480.473 9.08946 480.912 8.63361 480.902 8.08142L478.902 8.11808ZM7.00606 398.715C7.01531 397.343 7.03515 395.984 7.06547 394.64L5.06598 394.595C5.03542 395.95 5.01543 397.319 5.0061 398.701L7.00606 398.715ZM7.18776 390.649C7.23894 389.333 7.30049 388.03 7.37231 386.741L5.37541 386.63C5.30296 387.93 5.24088 389.244 5.18927 390.572L7.18776 390.649ZM7.61848 382.914C7.71074 381.652 7.81316 380.403 7.92563 379.168L5.93387 378.986C5.8203 380.234 5.71691 381.494 5.6238 382.768L7.61848 382.914ZM8.33879 375.088C8.49237 373.714 8.65885 372.357 8.83809 371.016L6.85573 370.751C6.67455 372.106 6.50631 373.478 6.35116 374.866L8.33879 375.088ZM9.41391 367.045C9.6185 365.738 9.83568 364.447 10.0653 363.173L8.09702 362.818C7.86463 364.108 7.6449 365.413 7.43797 366.735L9.41391 367.045ZM10.7913 359.4C11.0457 358.158 11.3123 356.933 11.591 355.724L9.64213 355.275C9.35967 356.5 9.08959 357.741 8.83202 358.999L10.7913 359.4ZM12.5729 351.721C12.9171 350.399 13.2765 349.097 13.6509 347.814L11.731 347.254C11.3511 348.555 10.9865 349.876 10.6374 351.217L12.5729 351.721ZM14.8184 344.026C15.2224 342.782 15.641 341.558 16.0742 340.352L14.192 339.676C13.7518 340.901 13.3265 342.145 12.9163 343.408L14.8184 344.026ZM17.4169 336.793C17.9135 335.537 18.4266 334.303 18.956 333.091L17.1229 332.291C16.5842 333.525 16.0622 334.78 15.5571 336.057L17.4169 336.793ZM20.6335 329.429C21.2095 328.231 21.8022 327.054 22.4113 325.898L20.6421 324.965C20.0213 326.143 19.4174 327.342 18.8308 328.563L20.6335 329.429ZM24.2879 322.495C24.9302 321.38 25.5887 320.287 26.2631 319.214L24.5698 318.149C23.8817 319.244 23.2101 320.36 22.5551 321.496L24.2879 322.495ZM28.4739 315.851C29.2286 314.753 30.0012 313.678 30.7911 312.624L29.1911 311.424C28.3846 312.5 27.596 313.597 26.8257 314.718L28.4739 315.851ZM33.2129 309.531C34.0374 308.521 34.879 307.533 35.7374 306.567L34.2418 305.239C33.3653 306.226 32.5058 307.235 31.6639 308.266L33.2129 309.531ZM38.4076 303.682C39.3256 302.731 40.261 301.802 41.2136 300.893L39.8334 299.446C38.8609 300.373 37.9058 301.322 36.9685 302.293L38.4076 303.682ZM44.1222 298.231C45.1086 297.365 46.1117 296.519 47.1313 295.693L45.8725 294.139C44.8324 294.982 43.8089 295.845 42.8022 296.729L44.1222 298.231ZM50.2353 293.278C51.2829 292.495 52.3465 291.732 53.4257 290.987L52.2896 289.341C51.1901 290.1 50.1061 290.878 49.038 291.676L50.2353 293.278ZM56.7096 288.808C57.8196 288.101 58.9449 287.411 60.0851 286.74L59.07 285.016C57.9099 285.7 56.7646 286.401 55.6344 287.122L56.7096 288.808ZM63.5501 284.777C64.6897 284.157 65.8432 283.553 67.0101 282.965L66.11 281.179C64.9246 281.776 63.7525 282.39 62.5939 283.021L63.5501 284.777ZM70.5459 281.25C71.7377 280.694 72.9426 280.153 74.1604 279.627L73.3674 277.791C72.1324 278.325 70.9099 278.873 69.7002 279.438L70.5459 281.25ZM77.8516 278.094C79.0701 277.607 80.3006 277.134 81.5427 276.674L80.8486 274.799C79.5908 275.264 78.3443 275.743 77.1096 276.237L77.8516 278.094ZM85.2277 275.361C86.467 274.936 87.7172 274.523 88.978 274.122L88.3721 272.216C87.0972 272.621 85.8326 273.039 84.5786 273.469L85.2277 275.361ZM92.7919 272.955C94.0736 272.578 95.3655 272.212 96.6675 271.857L96.1419 269.928C94.8272 270.286 93.5222 270.655 92.2271 271.036L92.7919 272.955ZM100.453 270.864C101.717 270.545 102.99 270.235 104.271 269.935L103.815 267.988C102.523 268.291 101.239 268.603 99.9635 268.925L100.453 270.864ZM108.14 269.063C109.438 268.782 110.744 268.51 112.059 268.246L111.665 266.285C110.341 266.551 109.025 266.825 107.716 267.109L108.14 269.063ZM116.02 267.481C117.295 267.245 118.577 267.016 119.866 266.794L119.527 264.823C118.23 265.046 116.939 265.277 115.656 265.515L116.02 267.481ZM123.753 266.151C125.056 265.943 126.365 265.743 127.681 265.549L127.389 263.57C126.066 263.765 124.749 263.967 123.439 264.175L123.753 266.151ZM131.646 264.987C132.975 264.806 134.309 264.631 135.649 264.462L135.4 262.478C134.053 262.648 132.712 262.823 131.376 263.005L131.646 264.987ZM139.541 263.991C140.842 263.839 142.15 263.692 143.462 263.551L143.247 261.562C141.929 261.705 140.617 261.852 139.309 262.004L139.541 263.991ZM147.413 263.14C148.736 263.008 150.063 262.88 151.394 262.757L151.21 260.766C149.874 260.889 148.542 261.017 147.215 261.15L147.413 263.14ZM155.404 262.4C156.714 262.288 158.029 262.179 159.348 262.074L159.189 260.08C157.866 260.186 156.548 260.295 155.233 260.407L155.404 262.4ZM163.285 261.772C164.601 261.675 165.921 261.58 167.245 261.489L167.108 259.494C165.781 259.585 164.457 259.68 163.137 259.777L163.285 261.772ZM171.227 261.224C172.558 261.138 173.892 261.055 175.229 260.974L175.109 258.978C173.769 259.059 172.432 259.142 171.098 259.228L171.227 261.224ZM179.22 260.741C180.532 260.667 181.848 260.594 183.166 260.524L183.059 258.527C181.739 258.597 180.421 258.67 179.106 258.744L179.22 260.741ZM187.129 260.317C188.453 260.249 189.779 260.184 191.108 260.119L191.011 258.121C189.681 258.186 188.353 258.252 187.028 258.319L187.129 260.317ZM195.1 259.929C196.433 259.866 197.769 259.805 199.106 259.744L199.015 257.746C197.677 257.807 196.341 257.868 195.007 257.931L195.1 259.929ZM203.074 259.566C204.394 259.508 205.716 259.449 207.04 259.391L206.953 257.393C205.629 257.451 204.306 257.509 202.985 257.568L203.074 259.566ZM211.016 259.218C212.343 259.16 213.672 259.103 215.001 259.045L214.914 257.047C213.585 257.105 212.257 257.162 210.93 257.22L211.016 259.218ZM218.994 258.869C220.324 258.811 221.655 258.751 222.987 258.691L222.897 256.693C221.565 256.753 220.235 256.813 218.905 256.871L218.994 258.869ZM226.96 258.51C228.285 258.448 229.611 258.386 230.938 258.322L230.842 256.324C229.517 256.388 228.192 256.45 226.867 256.512L226.96 258.51ZM234.919 258.127C236.247 258.061 237.575 257.993 238.903 257.923L238.798 255.926C237.472 255.995 236.145 256.063 234.819 256.13L234.919 258.127ZM242.888 257.709C244.216 257.636 245.545 257.56 246.873 257.483L246.756 255.486C245.43 255.564 244.104 255.639 242.778 255.712L242.888 257.709ZM250.856 257.244C252.183 257.162 253.511 257.077 254.838 256.99L254.706 254.994C253.382 255.081 252.058 255.166 250.732 255.248L250.856 257.244ZM258.817 256.72C260.142 256.627 261.468 256.531 262.792 256.432L262.643 254.438C261.322 254.536 260 254.632 258.677 254.725L258.817 256.72ZM266.763 256.126C268.093 256.019 269.422 255.91 270.75 255.797L270.58 253.804C269.256 253.917 267.931 254.026 266.604 254.132L266.763 256.126ZM274.733 255.445C276.06 255.324 277.385 255.199 278.709 255.07L278.515 253.08C277.196 253.208 275.874 253.333 274.552 253.454L274.733 255.445ZM282.677 254.67C283.997 254.532 285.317 254.39 286.634 254.243L286.412 252.255C285.1 252.402 283.785 252.543 282.469 252.681L282.677 254.67ZM290.592 253.787C291.921 253.628 293.249 253.465 294.574 253.296L294.321 251.312C293.001 251.48 291.679 251.643 290.355 251.801L290.592 253.787ZM298.543 252.774C299.864 252.594 301.182 252.409 302.498 252.218L302.21 250.238C300.901 250.429 299.588 250.613 298.273 250.792L298.543 252.774ZM306.438 251.627C307.748 251.424 309.056 251.215 310.361 250.999L310.035 249.026C308.737 249.24 307.436 249.448 306.131 249.65L306.438 251.627ZM314.309 250.327C315.629 250.095 316.946 249.856 318.26 249.61L317.891 247.644C316.585 247.889 315.276 248.126 313.963 248.357L314.309 250.327ZM322.19 248.85C323.496 248.59 324.799 248.322 326.099 248.047L325.684 246.09C324.393 246.364 323.098 246.63 321.799 246.889L322.19 248.85ZM329.986 247.198C331.282 246.906 332.574 246.606 333.863 246.298L333.398 244.353C332.118 244.659 330.834 244.957 329.546 245.247L329.986 247.198ZM337.77 245.335C339.068 245.006 340.362 244.667 341.651 244.32L341.131 242.389C339.851 242.733 338.567 243.069 337.278 243.397L337.77 245.335ZM345.505 243.25C346.784 242.885 348.059 242.51 349.329 242.125L348.75 240.211C347.49 240.592 346.225 240.964 344.955 241.327L345.505 243.25ZM353.124 240.942C354.401 240.533 355.672 240.113 356.937 239.683L356.294 237.789C355.039 238.216 353.779 238.632 352.513 239.038L353.124 240.942ZM360.729 238.357C361.987 237.905 363.239 237.441 364.486 236.967L363.774 235.098C362.539 235.568 361.298 236.027 360.052 236.475L360.729 238.357ZM368.206 235.51C369.441 235.013 370.669 234.504 371.89 233.984L371.107 232.144C369.897 232.659 368.682 233.162 367.459 233.655L368.206 235.51ZM375.555 232.38C376.776 231.83 377.99 231.269 379.197 230.694L378.338 228.888C377.144 229.456 375.942 230.012 374.734 230.556L375.555 232.38ZM382.798 228.933C383.991 228.334 385.177 227.721 386.355 227.095L385.417 225.329C384.252 225.947 383.08 226.553 381.9 227.146L382.798 228.933ZM389.869 225.178C391.032 224.526 392.187 223.86 393.335 223.181L392.316 221.46C391.182 222.131 390.04 222.789 388.89 223.434L389.869 225.178ZM396.752 221.102C397.883 220.395 399.006 219.675 400.121 218.939L399.02 217.27C397.919 217.996 396.809 218.708 395.692 219.406L396.752 221.102ZM403.44 216.69C404.538 215.926 405.627 215.147 406.708 214.353L405.524 212.742C404.457 213.525 403.381 214.294 402.297 215.049L403.44 216.69ZM409.922 211.928C410.967 211.119 412.003 210.294 413.03 209.455L411.764 207.906C410.751 208.735 409.728 209.548 408.697 210.348L409.922 211.928ZM416.085 206.892C417.094 206.022 418.094 205.137 419.085 204.237L417.74 202.757C416.762 203.645 415.775 204.519 414.779 205.377L416.085 206.892ZM422.03 201.488C423.003 200.556 423.966 199.608 424.919 198.644L423.497 197.238C422.556 198.189 421.606 199.124 420.646 200.044L422.03 201.488ZM427.676 195.782C428.575 194.824 429.465 193.851 430.345 192.862L428.852 191.532C427.983 192.508 427.105 193.468 426.217 194.414L427.676 195.782ZM432.959 189.849C433.821 188.829 434.674 187.793 435.516 186.742L433.956 185.491C433.124 186.529 432.282 187.551 431.432 188.558L432.959 189.849ZM438.015 183.539C438.831 182.464 439.637 181.374 440.434 180.268L438.811 179.1C438.024 180.192 437.228 181.268 436.423 182.329L438.015 183.539ZM442.676 177.072C443.415 175.992 444.144 174.897 444.864 173.787L443.187 172.699C442.475 173.795 441.755 174.876 441.025 175.943L442.676 177.072ZM446.997 170.413C447.699 169.273 448.391 168.117 449.074 166.947L447.347 165.939C446.672 167.096 445.988 168.238 445.294 169.364L446.997 170.413ZM451.094 163.389C451.745 162.211 452.386 161.018 453.018 159.81L451.246 158.883C450.621 160.078 449.987 161.257 449.344 162.422L451.094 163.389ZM454.778 156.358C455.357 155.193 455.926 154.015 456.488 152.824L454.678 151.971C454.123 153.151 453.559 154.316 452.987 155.468L454.778 156.358ZM458.145 149.207C458.689 147.987 459.225 146.754 459.751 145.506L457.909 144.728C457.387 145.964 456.857 147.185 456.319 148.392L458.145 149.207ZM461.304 141.721C461.813 140.445 462.313 139.154 462.804 137.85L460.932 137.145C460.446 138.438 459.951 139.716 459.447 140.98L461.304 141.721ZM464.137 134.21C464.568 133 464.991 131.778 465.407 130.544L463.511 129.905C463.099 131.129 462.68 132.34 462.253 133.539L464.137 134.21ZM466.631 126.805C467.031 125.547 467.424 124.276 467.809 122.993L465.893 122.418C465.512 123.691 465.122 124.951 464.725 126.199L466.631 126.805ZM468.94 119.106C469.31 117.797 469.671 116.477 470.025 115.143L468.091 114.631C467.741 115.954 467.382 117.264 467.016 118.562L468.94 119.106ZM471.061 111.105C471.37 109.861 471.672 108.607 471.967 107.341L470.02 106.887C469.726 108.143 469.426 109.388 469.12 110.623L471.061 111.105ZM472.818 103.58C473.095 102.316 473.365 101.041 473.629 99.7555L471.67 99.3537C471.408 100.63 471.139 101.897 470.864 103.152L472.818 103.58ZM474.4 95.8674C474.65 94.5607 474.893 93.2432 475.13 91.915L473.161 91.5642C472.926 92.8841 472.684 94.1931 472.435 95.4913L474.4 95.8674ZM475.819 87.8977C476.042 86.5478 476.258 85.187 476.468 83.8151L474.49 83.5137C474.282 84.8775 474.068 86.2301 473.846 87.5718L475.819 87.8977ZM477.072 79.6783C477.247 78.4317 477.416 77.1762 477.579 75.9118L475.596 75.6556C475.433 76.913 475.265 78.1614 475.092 79.4009L477.072 79.6783ZM478.052 72.0918C478.204 70.8095 478.351 69.5182 478.491 68.2179L476.503 68.0029C476.363 69.2965 476.217 70.581 476.066 71.8564L478.052 72.0918ZM478.896 64.2895C479.025 62.971 479.148 61.6433 479.266 60.3065L477.273 60.1314C477.156 61.4617 477.034 62.7828 476.905 64.0946L478.896 64.2895ZM479.601 56.2683C479.706 54.913 479.806 53.5485 479.9 52.1746L477.905 52.0381C477.811 53.4056 477.712 54.7638 477.607 56.1127L479.601 56.2683ZM480.165 48.0249C480.244 46.6754 480.318 45.3172 480.386 43.95L478.389 43.8502C478.321 45.2114 478.247 46.5637 478.168 47.9071L480.165 48.0249ZM480.561 40.1491C480.614 38.8746 480.663 37.5925 480.707 36.3027L478.708 36.2349C478.664 37.5194 478.616 38.7962 478.563 40.0654L480.561 40.1491ZM480.823 32.4106C480.857 31.1056 480.887 29.7929 480.911 28.4725L478.911 28.4358C478.887 29.7511 478.858 31.0586 478.824 32.3585L480.823 32.4106ZM480.969 24.4879C480.983 23.1521 480.993 21.8084 480.997 20.4569L478.997 20.4503C478.993 21.7968 478.983 23.1355 478.969 24.4664L480.969 24.4879ZM480.995 16.3789C480.99 15.0118 480.979 13.6368 480.964 12.2539L478.964 12.2764C478.98 13.6545 478.99 15.0247 478.995 16.387L480.995 16.3789ZM480.902 8.08142C480.889 7.38232 480.875 6.68124 480.86 5.97817L478.86 6.02183C478.876 6.72258 478.89 7.42133 478.902 8.11808L480.902 8.08142Z" fill="#2D54E5"/>
</svg>
