<svg width="32" height="32" viewBox="0 0 32 32" fill="none" xmlns="http://www.w3.org/2000/svg">
<path opacity="0.4" d="M27.3333 13.5865H23.4799C20.3199 13.5865 17.7466 11.0132 17.7466 7.85317V3.99984C17.7466 3.2665 17.1466 2.6665 16.4133 2.6665H10.7599C6.65325 2.6665 3.33325 5.33317 3.33325 10.0932V21.9065C3.33325 26.6665 6.65325 29.3332 10.7599 29.3332H21.2399C25.3466 29.3332 28.6666 26.6665 28.6666 21.9065V14.9198C28.6666 14.1865 28.0666 13.5865 27.3333 13.5865Z" fill="#52CCC4"/>
<path d="M21.0663 2.94731C20.5196 2.40064 19.5729 2.77398 19.5729 3.53398V8.18731C19.5729 10.134 21.2263 11.7473 23.2396 11.7473C24.5063 11.7606 26.2663 11.7606 27.7729 11.7606C28.5329 11.7606 28.9329 10.8673 28.3996 10.334C26.4796 8.40064 23.0396 4.92064 21.0663 2.94731ZM18 18.3333H10C9.45333 18.3333 9 17.88 9 17.3333C9 16.7867 9.45333 16.3333 10 16.3333H18C18.5467 16.3333 19 16.7867 19 17.3333C19 17.88 18.5467 18.3333 18 18.3333ZM15.3333 23.6667H10C9.45333 23.6667 9 23.2133 9 22.6667C9 22.12 9.45333 21.6667 10 21.6667H15.3333C15.88 21.6667 16.3333 22.12 16.3333 22.6667C16.3333 23.2133 15.88 23.6667 15.3333 23.6667Z" fill="#52CCC4"/>
</svg>
