<svg width="343" height="48" viewBox="0 0 343 48" fill="none" xmlns="http://www.w3.org/2000/svg">
<path d="M3.04978 27.4479C1.18938 27.9727 0.106664 29.9062 0.631458 31.7666C1.15625 33.627 3.08983 34.7097 4.95022 34.1849L3.04978 27.4479ZM317.245 22.1592C319.132 22.5762 321.001 21.3842 321.418 19.4967C321.835 17.6092 320.643 15.7411 318.755 15.3241L317.245 22.1592ZM4.95022 34.1849C58.7332 19.0134 168.678 -10.6632 317.245 22.1592L318.755 15.3241C168.497 -17.8719 57.2097 12.17 3.04978 27.4479L4.95022 34.1849Z" fill="#FFAD00"/>
<path d="M25.047 40.4487C23.187 40.975 22.1059 42.9095 22.6323 44.7694C23.1586 46.6294 25.0931 47.7105 26.953 47.1842L25.047 40.4487ZM338.243 35.1587C340.13 35.577 341.999 34.3862 342.417 32.499C342.835 30.6118 341.645 28.7428 339.757 28.3246L338.243 35.1587ZM26.953 47.1842C80.5637 32.0129 190.154 2.3375 338.243 35.1587L339.757 28.3246C189.972 -4.8726 79.0354 25.1705 25.047 40.4487L26.953 47.1842Z" fill="#03A1EC"/>
</svg>
