<svg width="32" height="32" viewBox="0 0 32 32" fill="none" xmlns="http://www.w3.org/2000/svg">
<path opacity="0.4" d="M28.9867 12.5865H2.66675V8.55984C2.66675 5.3065 5.30675 2.6665 8.56008 2.6665H11.6667C13.8401 2.6665 14.5201 3.37317 15.3867 4.53317L17.2534 7.01317C17.6667 7.55984 17.7201 7.63984 18.4934 7.63984H22.2134C25.3734 7.6265 28.0667 9.7065 28.9867 12.5865Z" fill="#52CCC4"/>
<path d="M29.3201 14.455C29.2934 13.8017 29.1867 13.1884 28.9867 12.5884H2.66675V22.2017C2.66675 26.135 5.86675 29.335 9.80008 29.335H22.2001C26.1334 29.335 29.3334 26.135 29.3334 22.2017V14.7617C29.3334 14.6684 29.3334 14.5484 29.3201 14.455ZM19.3867 21.295L16.5201 23.8017C16.3734 23.935 16.1867 24.0017 16.0001 24.0017C15.8134 24.0017 15.6267 23.935 15.4801 23.8017L12.6134 21.295C11.7067 20.495 11.5867 19.135 12.3334 18.1884C13.1067 17.2284 14.4667 17.055 15.4534 17.7884L15.9867 18.1884L16.5201 17.7884C17.5067 17.055 18.8667 17.2284 19.6401 18.1884C20.4134 19.135 20.2934 20.495 19.3867 21.295Z" fill="#52CCC4"/>
</svg>
