<svg width="32" height="32" viewBox="0 0 32 32" fill="none" xmlns="http://www.w3.org/2000/svg">
<path opacity="0.4" d="M29.3333 10.4132V18.6665H23.8933C23 18.6665 21.9466 18.0265 21.5333 17.2398L20.1466 14.6132C19.7733 13.9065 19.24 13.9465 18.9466 14.6798L15.88 22.4265C15.5466 23.2932 14.9866 23.2932 14.64 22.4265L13.12 18.5865C12.76 17.6532 11.64 16.8932 10.64 16.8932L2.66663 16.9332V10.4132C2.66663 5.55984 5.55996 2.6665 10.4133 2.6665H21.5866C26.44 2.6665 29.3333 5.55984 29.3333 10.4132Z" fill="#2D54E5"/>
<path d="M29.3333 21.5847V18.6647H23.8933C23 18.6647 21.9466 18.0247 21.5333 17.2381L20.1466 14.6114C19.7733 13.9047 19.24 13.9447 18.9466 14.6781L15.88 22.4247C15.5466 23.2914 14.9866 23.2914 14.64 22.4247L13.12 18.5847C12.76 17.6514 11.64 16.8914 10.64 16.8914L2.66663 16.9314V21.5847C2.66663 26.3581 5.46663 29.2381 10.1733 29.3181C10.32 29.3314 10.48 29.3314 10.6266 29.3314H21.2933C21.4933 29.3314 21.6933 29.3314 21.88 29.3181C26.56 29.2114 29.3333 26.3447 29.3333 21.5847Z" fill="#2D54E5"/>
<path d="M2.66756 16.9321V21.3455C2.6409 20.9188 2.62756 20.4655 2.62756 19.9988V16.9321H2.66756Z" fill="#2D54E5"/>
</svg>
