<svg width="17" height="16" viewBox="0 0 17 16" fill="none" xmlns="http://www.w3.org/2000/svg">
<g clip-path="url(#clip0_390_961)">
<path d="M8.63184 16C6.5101 16 4.47527 15.1571 2.97498 13.6569C1.47469 12.1566 0.631836 10.1217 0.631836 8C0.631836 5.87827 1.47469 3.84344 2.97498 2.34315C4.47527 0.842855 6.5101 0 8.63184 0C10.7536 0 12.7884 0.842855 14.2887 2.34315C15.789 3.84344 16.6318 5.87827 16.6318 8C16.6318 10.1217 15.789 12.1566 14.2887 13.6569C12.7884 15.1571 10.7536 16 8.63184 16ZM8.63184 14.4C10.3292 14.4 11.9571 13.7257 13.1573 12.5255C14.3576 11.3253 15.0318 9.69739 15.0318 8C15.0318 6.30261 14.3576 4.67475 13.1573 3.47452C11.9571 2.27428 10.3292 1.6 8.63184 1.6C6.93445 1.6 5.30659 2.27428 4.10635 3.47452C2.90612 4.67475 2.23184 6.30261 2.23184 8C2.23184 9.69739 2.90612 11.3253 4.10635 12.5255C5.30659 13.7257 6.93445 14.4 8.63184 14.4ZM12.6318 7.2V8.8H4.63184V7.2H12.6318Z" fill="#0F1733"/>
</g>
<defs>
<clipPath id="clip0_390_961">
<rect width="16" height="16" fill="white" transform="translate(0.631836)"/>
</clipPath>
</defs>
</svg>
