<svg width="32" height="32" viewBox="0 0 32 32" fill="none" xmlns="http://www.w3.org/2000/svg">
<path opacity="0.4" d="M28.8803 13.9182L27.5737 19.4915C26.4537 24.3048 24.2403 26.2515 20.0803 25.8515C19.4137 25.7982 18.6937 25.6782 17.9203 25.4915L15.6803 24.9582C10.1203 23.6382 8.40032 20.8915 9.70699 15.3182L11.0137 9.73155C11.2803 8.59822 11.6003 7.61155 12.0003 6.79822C13.5603 3.57155 16.2137 2.70489 20.667 3.75822L22.8937 4.27822C28.4803 5.58489 30.187 8.34489 28.8803 13.9182Z" fill="#E645B3"/>
<path d="M20.0778 25.8556C19.2511 26.4156 18.2111 26.8823 16.9444 27.2956L14.8378 27.989C9.54444 29.6956 6.75777 28.269 5.03777 22.9756L3.3311 17.709C1.62444 12.4156 3.03777 9.61558 8.3311 7.90891L10.4378 7.21558C10.9844 7.04225 11.5044 6.89558 11.9978 6.80225C11.5978 7.61558 11.2778 8.60225 11.0111 9.73558L9.70444 15.3223C8.39777 20.8956 10.1178 23.6423 15.6778 24.9623L17.9178 25.4956C18.6911 25.6823 19.4111 25.8023 20.0778 25.8556ZM23.3191 14.0158C23.2391 14.0158 23.1591 14.0024 23.0658 13.9891L16.5991 12.3491C16.0658 12.2158 15.7458 11.6691 15.8791 11.1358C16.0125 10.6025 16.5591 10.2825 17.0924 10.4158L23.5591 12.0558C24.0924 12.1891 24.4125 12.7358 24.2791 13.2691C24.1725 13.7091 23.7591 14.0158 23.3191 14.0158Z" fill="#E645B3"/>
<path d="M19.4148 18.5184C19.3348 18.5184 19.2548 18.5051 19.1615 18.4917L15.2815 17.5051C14.7481 17.3717 14.4281 16.8251 14.5615 16.2917C14.6948 15.7584 15.2415 15.4384 15.7748 15.5717L19.6548 16.5584C20.1881 16.6917 20.5081 17.2384 20.3748 17.7717C20.2681 18.2251 19.8681 18.5184 19.4148 18.5184Z" fill="#E645B3"/>
</svg>
