<svg width="75" height="62" viewBox="0 0 75 62" fill="none" xmlns="http://www.w3.org/2000/svg">
<g clip-path="url(#clip0_303_1129)">
<path d="M44.167 8C51.8197 3.58172 61.6052 6.20372 66.0234 13.8564C70.4417 21.5091 67.8197 31.2945 60.167 35.7128L46.3106 43.7128L30.3106 16L44.167 8Z" fill="#E645B3" fill-opacity="0.6"/>
<circle cx="58.1311" cy="24.1865" r="21" transform="rotate(60 58.1311 24.1865)" fill="url(#paint0_linear_303_1129)"/>
</g>
<g clip-path="url(#clip1_303_1129)">
<path d="M29.8562 53.2129C22.2035 57.6312 12.418 55.0092 7.99976 47.3565C3.58148 39.7038 6.20348 29.9184 13.8562 25.5001L27.7126 17.5001L43.7126 45.2129L29.8562 53.2129Z" fill="#2D54E5" fill-opacity="0.6"/>
<ellipse cx="9.14695" cy="40.3433" rx="22.5" ry="22.5" transform="rotate(-120 9.14695 40.3433)" fill="url(#paint1_linear_303_1129)"/>
</g>
<defs>
<linearGradient id="paint0_linear_303_1129" x1="65.5827" y1="-11.7167" x2="45.9375" y2="35.7027" gradientUnits="userSpaceOnUse">
<stop stop-color="white"/>
<stop offset="1" stop-color="white" stop-opacity="0"/>
</linearGradient>
<linearGradient id="paint1_linear_303_1129" x1="17.1308" y1="1.87555" x2="-3.91756" y2="52.682" gradientUnits="userSpaceOnUse">
<stop stop-opacity="0.8"/>
<stop offset="1" stop-opacity="0"/>
</linearGradient>
<clipPath id="clip0_303_1129">
<path d="M44.167 8C51.8197 3.58172 61.6052 6.20372 66.0234 13.8564C70.4417 21.5091 67.8197 31.2945 60.167 35.7128L46.3106 43.7128L30.3106 16L44.167 8Z" fill="white"/>
</clipPath>
<clipPath id="clip1_303_1129">
<path d="M29.8562 53.2129C22.2035 57.6312 12.418 55.0092 7.99976 47.3565C3.58148 39.7038 6.20348 29.9184 13.8562 25.5001L27.7126 17.5001L43.7126 45.2129L29.8562 53.2129Z" fill="white"/>
</clipPath>
</defs>
</svg>
