<svg width="62" height="75" viewBox="0 0 62 75" fill="none" xmlns="http://www.w3.org/2000/svg">
<g clip-path="url(#clip0_312_2)">
<path d="M8 29.8564C3.58172 22.2037 6.20372 12.4183 13.8564 8C21.5091 3.58172 31.2945 6.20372 35.7128 13.8564L43.7128 27.7128L16 43.7128L8 29.8564Z" fill="#E645B3" fill-opacity="0.6"/>
<circle cx="24.1865" cy="15.8923" r="21" transform="rotate(-30 24.1865 15.8923)" fill="url(#paint0_linear_312_2)"/>
</g>
<g clip-path="url(#clip1_312_2)">
<path d="M53.2129 44.1673C57.6312 51.82 55.0092 61.6054 47.3565 66.0237C39.7038 70.442 29.9184 67.82 25.5001 60.1673L17.5001 46.3109L45.2129 30.3109L53.2129 44.1673Z" fill="#2D54E5" fill-opacity="0.6"/>
<ellipse cx="40.3433" cy="64.8765" rx="22.5" ry="22.5" transform="rotate(150 40.3433 64.8765)" fill="url(#paint1_linear_312_2)"/>
</g>
<defs>
<linearGradient id="paint0_linear_312_2" x1="31.6381" y1="-20.0109" x2="11.993" y2="27.4085" gradientUnits="userSpaceOnUse">
<stop stop-color="white"/>
<stop offset="1" stop-color="white" stop-opacity="0"/>
</linearGradient>
<linearGradient id="paint1_linear_312_2" x1="48.3272" y1="26.4087" x2="27.2788" y2="77.2152" gradientUnits="userSpaceOnUse">
<stop stop-opacity="0.8"/>
<stop offset="1" stop-opacity="0"/>
</linearGradient>
<clipPath id="clip0_312_2">
<path d="M8 29.8564C3.58172 22.2037 6.20372 12.4183 13.8564 8C21.5091 3.58172 31.2945 6.20372 35.7128 13.8564L43.7128 27.7128L16 43.7128L8 29.8564Z" fill="white"/>
</clipPath>
<clipPath id="clip1_312_2">
<path d="M53.2129 44.1673C57.6312 51.82 55.0092 61.6054 47.3565 66.0237C39.7038 70.442 29.9184 67.82 25.5001 60.1673L17.5001 46.3109L45.2129 30.3109L53.2129 44.1673Z" fill="white"/>
</clipPath>
</defs>
</svg>
