<svg width="71" height="71" viewBox="0 0 71 71" fill="none" xmlns="http://www.w3.org/2000/svg">
<g clip-path="url(#clip0_312_63)">
<path d="M33.9411 58.6902C27.6928 64.9386 17.5621 64.9386 11.3137 58.6902C5.06534 52.4418 5.06534 42.3112 11.3137 36.0628L22.6274 24.7491L45.2549 47.3765L33.9411 58.6902Z" fill="#E645B3" fill-opacity="0.6"/>
<circle cx="16.2634" cy="46.6692" r="21" transform="rotate(-135 16.2634 46.6692)" fill="url(#paint0_linear_312_63)"/>
</g>
<g clip-path="url(#clip1_312_63)">
<path d="M36.0625 11.3142C42.3109 5.06581 52.4415 5.06581 58.6899 11.3142C64.9383 17.5626 64.9383 27.6932 58.6899 33.9416L47.3762 45.2553L24.7488 22.6279L36.0625 11.3142Z" fill="#2D54E5" fill-opacity="0.6"/>
<ellipse cx="59.397" cy="18.3852" rx="22.5" ry="22.5" transform="rotate(45 59.397 18.3852)" fill="url(#paint1_linear_312_63)"/>
</g>
<defs>
<linearGradient id="paint0_linear_312_63" x1="23.715" y1="10.766" x2="4.06988" y2="58.1853" gradientUnits="userSpaceOnUse">
<stop stop-color="white"/>
<stop offset="1" stop-color="white" stop-opacity="0"/>
</linearGradient>
<linearGradient id="paint1_linear_312_63" x1="67.3808" y1="-20.0825" x2="46.3325" y2="30.7239" gradientUnits="userSpaceOnUse">
<stop stop-opacity="0.8"/>
<stop offset="1" stop-opacity="0"/>
</linearGradient>
<clipPath id="clip0_312_63">
<path d="M33.9411 58.6902C27.6928 64.9386 17.5621 64.9386 11.3137 58.6902C5.06534 52.4418 5.06534 42.3112 11.3137 36.0628L22.6274 24.7491L45.2549 47.3765L33.9411 58.6902Z" fill="white"/>
</clipPath>
<clipPath id="clip1_312_63">
<path d="M36.0625 11.3142C42.3109 5.06581 52.4415 5.06581 58.6899 11.3142C64.9383 17.5626 64.9383 27.6932 58.6899 33.9416L47.3762 45.2553L24.7488 22.6279L36.0625 11.3142Z" fill="white"/>
</clipPath>
</defs>
</svg>
