<svg width="71" height="71" viewBox="0 0 71 71" fill="none" xmlns="http://www.w3.org/2000/svg">
<g clip-path="url(#clip0_303_1123)">
<path d="M33.9411 58.69C27.6928 64.9383 17.5621 64.9383 11.3137 58.69C5.06534 52.4416 5.06534 42.3109 11.3137 36.0625L22.6274 24.7488L45.2549 47.3762L33.9411 58.69Z" fill="#E645B3" fill-opacity="0.6"/>
<circle cx="16.2634" cy="46.6692" r="21" transform="rotate(-135 16.2634 46.6692)" fill="url(#paint0_linear_303_1123)"/>
</g>
<g clip-path="url(#clip1_303_1123)">
<path d="M36.0625 11.3137C42.3109 5.06532 52.4415 5.06532 58.6899 11.3137C64.9383 17.5621 64.9383 27.6927 58.6899 33.9411L47.3762 45.2548L24.7488 22.6274L36.0625 11.3137Z" fill="#2D54E5" fill-opacity="0.6"/>
<ellipse cx="59.3971" cy="18.3847" rx="22.5" ry="22.5" transform="rotate(45 59.3971 18.3847)" fill="url(#paint1_linear_303_1123)"/>
</g>
<defs>
<linearGradient id="paint0_linear_303_1123" x1="23.715" y1="10.766" x2="4.06988" y2="58.1853" gradientUnits="userSpaceOnUse">
<stop stop-color="white"/>
<stop offset="1" stop-color="white" stop-opacity="0"/>
</linearGradient>
<linearGradient id="paint1_linear_303_1123" x1="67.381" y1="-20.083" x2="46.3326" y2="30.7235" gradientUnits="userSpaceOnUse">
<stop stop-opacity="0.8"/>
<stop offset="1" stop-opacity="0"/>
</linearGradient>
<clipPath id="clip0_303_1123">
<path d="M33.9411 58.69C27.6928 64.9383 17.5621 64.9383 11.3137 58.69C5.06534 52.4416 5.06534 42.3109 11.3137 36.0625L22.6274 24.7488L45.2549 47.3762L33.9411 58.69Z" fill="white"/>
</clipPath>
<clipPath id="clip1_303_1123">
<path d="M36.0625 11.3137C42.3109 5.06532 52.4415 5.06532 58.6899 11.3137C64.9383 17.5621 64.9383 27.6927 58.6899 33.9411L47.3762 45.2548L24.7488 22.6274L36.0625 11.3137Z" fill="white"/>
</clipPath>
</defs>
</svg>
