<svg width="120" height="30" viewBox="0 0 120 30" fill="none" xmlns="http://www.w3.org/2000/svg">
<g opacity="0.8">
<path d="M2.41675 24.2126C2.45808 24.1713 2.45808 24.1713 2.41675 24.2126C2.45808 24.1713 2.45808 24.1713 2.41675 24.2126Z" fill="black" fill-opacity="0.6"/>
<path d="M2.53784 24.1713C2.57823 24.1713 2.61862 24.1309 2.65901 24.1309C2.65901 24.1309 2.61862 24.1309 2.53784 24.1713C2.57823 24.1713 2.57823 24.1713 2.53784 24.1713Z" fill="black" fill-opacity="0.6"/>
<path d="M1.16455 24.8967C1.16455 24.8967 1.20451 24.8567 1.16455 24.8967C1.20451 24.8567 1.16455 24.8967 1.16455 24.8967Z" fill="black" fill-opacity="0.6"/>
<path d="M1.44729 24.6963C1.36651 24.7771 1.28573 24.8175 1.20496 24.8982C1.24535 24.8578 1.28573 24.8175 1.32612 24.8175C1.36651 24.7367 1.4069 24.6963 1.44729 24.6963Z" fill="black" fill-opacity="0.6"/>
<path d="M9.08089 24.0498H3.34563C3.26485 24.0498 3.14369 24.0498 3.06291 24.0498C3.02252 24.0498 2.98213 24.0498 2.90135 24.0498C2.86096 24.0498 2.82057 24.0498 2.7398 24.0902C2.69941 24.0902 2.65902 24.1306 2.57824 24.1306C2.53785 24.1306 2.49746 24.171 2.41668 24.171C2.37629 24.171 2.33591 24.2114 2.25513 24.2114C2.29552 24.2114 2.3359 24.171 2.37629 24.171C2.41668 24.171 2.45707 24.1306 2.49746 24.1306C2.53785 24.1306 2.57824 24.0902 2.61863 24.0902H2.65902C2.69941 24.0902 2.7398 24.0902 2.7398 24.0902C2.78018 24.0902 2.82057 24.0902 2.86096 24.0902C2.90135 24.0902 2.94174 24.0902 2.98213 24.0902C3.02252 24.0902 3.06291 24.0902 3.1033 24.0902C3.14369 24.0902 3.18408 24.0902 3.26485 24.0902H9.08089V24.0498Z" fill="black" fill-opacity="0.6"/>
<path d="M9.08087 24.0498L8.63659 26.9174C8.39426 28.4926 6.89986 29.7851 5.32468 29.7851H2.45706C0.881883 29.7851 -0.208622 28.4926 0.0337122 26.9174C0.15488 26.2308 0.477991 25.5846 0.96266 25.0999C1.00305 25.0595 1.04344 25.0191 1.08383 24.9788C1.12422 24.9384 1.16461 24.898 1.205 24.898C1.205 24.898 1.205 24.898 1.24539 24.898C1.28577 24.8576 1.32616 24.8172 1.36655 24.8172C1.40694 24.7768 1.44733 24.7364 1.48772 24.7364C1.5685 24.6556 1.68967 24.6153 1.81083 24.5345C1.85122 24.4941 1.89161 24.4941 1.932 24.4537C1.97239 24.4133 2.01278 24.4133 2.09356 24.3729C2.13395 24.3325 2.21472 24.3325 2.25511 24.2921C2.2955 24.2921 2.33589 24.2518 2.37628 24.2518C2.41667 24.2518 2.45706 24.2114 2.49745 24.2114C2.53784 24.2114 2.57823 24.171 2.61862 24.171C2.659 24.171 2.69939 24.1306 2.73978 24.1306H2.78017C2.82056 24.1306 2.86095 24.1306 2.86095 24.1306C2.90134 24.1306 2.94173 24.1306 2.98212 24.1306C3.0225 24.1306 3.06289 24.1306 3.10328 24.1306C3.14367 24.1306 3.18406 24.1306 3.22445 24.1306C3.26484 24.1306 3.30523 24.1306 3.38601 24.1306H9.08087V24.0498Z" fill="black" fill-opacity="0.6"/>
<path d="M31.0938 11.9332L30.8918 13.1852C29.9629 19.2032 24.3084 24.0499 18.3308 24.0499H9.08171H3.34645C3.30606 24.0499 3.26567 24.0499 3.18489 24.0499C3.14451 24.0499 3.10412 24.0499 3.06373 24.0499H3.02334C2.98295 24.0499 2.94256 24.0499 2.94256 24.0499H2.90217H2.86178C2.82139 24.0499 2.781 24.0499 2.781 24.0499H2.74061C2.70023 24.0499 2.70023 24.0499 2.65984 24.0903H2.61945H2.57906C2.53867 24.0903 2.53867 24.0903 2.49828 24.0903C2.45789 24.0903 2.4175 24.1307 2.37711 24.1307C2.33672 24.1307 2.29634 24.1711 2.25595 24.1711C2.21556 24.2115 2.13478 24.2115 2.09439 24.2519C2.054 24.2922 2.01361 24.2922 1.93283 24.3326C1.89244 24.3326 1.85206 24.373 1.81167 24.4134C1.6905 24.4538 1.60972 24.5346 1.48855 24.6154C1.44816 24.6557 1.40777 24.6961 1.36738 24.6961C1.327 24.7365 1.28661 24.7365 1.24622 24.7769C1.24622 24.7769 1.24622 24.7769 1.20583 24.7769C1.16544 24.8173 1.12505 24.8577 1.08466 24.8577C1.04427 24.8981 1.00388 24.9385 0.963494 24.9789C0.478824 25.4635 0.115324 26.1098 0.0345459 26.7964L1.20583 19.4052C1.28661 18.8801 1.48855 18.3954 1.81167 17.9512C2.45789 17.103 3.46762 16.4971 4.51774 16.4971H14.4938C16.5133 16.4971 18.0481 16.2548 19.2598 15.8509C21.36 15.1643 22.9756 13.468 23.5814 11.3677L24.4296 8.29816L24.5103 8.05582L25.2374 5.39014C24.5911 6.39987 23.541 7.04609 22.4505 7.44998C22.4505 7.44998 22.4505 7.44998 22.4101 7.44998C20.9965 7.97504 19.5021 8.17699 17.9673 8.25776C17.8865 8.25776 17.8058 8.25776 17.725 8.25776C16.4729 8.29815 15.1805 8.25776 13.9284 8.25776C12.7167 8.25776 11.4647 8.25776 10.253 8.25776C9.40482 8.25776 8.55665 8.25776 7.66809 8.25776H5.12357C4.55813 8.25776 3.95229 8.25776 3.38684 8.25776C3.14451 8.25776 2.94256 8.01543 2.98295 7.7731L3.62918 3.53224C3.87151 2.03784 5.24474 0.826172 6.73914 0.826172H21.9254C27.9434 1.06851 32.0227 5.9152 31.0938 11.9332Z" fill="black" fill-opacity="0.6"/>
<path d="M14.4526 16.658C16.4721 16.658 18.0069 16.4156 19.2186 16.0117C21.3188 15.3251 22.9344 13.6288 23.5402 11.5286L24.3884 8.45898H27.9022L26.7309 12.7402C26.0847 15.0828 23.9845 16.658 21.5611 16.658H14.4526Z" fill="black" fill-opacity="0.2"/>
<path d="M52.9138 7.40966C54.2062 8.62133 54.8525 10.3581 54.8525 12.7006C54.8525 15.0028 54.2062 16.7799 52.9138 17.9512C51.6213 19.1629 49.723 19.7283 47.1785 19.7283H42.8569V26.8772H38.4949V5.55176H47.1785C49.723 5.63254 51.6213 6.23838 52.9138 7.40966ZM49.5615 15.0028C50.0865 14.5181 50.3289 13.7507 50.3289 12.7006C50.3289 11.6505 50.0865 10.9235 49.5615 10.4388C49.0364 9.95417 48.1883 9.75222 46.9766 9.75222H42.8973V15.7298H46.9766C48.1479 15.7298 49.0364 15.4875 49.5615 15.0028Z" fill="black" fill-opacity="0.6"/>
<path d="M67.6156 11.3273V15.447C66.9694 15.3258 66.3635 15.245 65.7981 15.245C64.5056 15.245 63.5767 15.5682 62.9709 16.2144C62.365 16.8606 62.0823 17.9511 62.0823 19.4051V26.9175H57.8818V11.4081H61.9611V13.9526C62.3246 13.064 62.8901 12.3774 63.6575 11.8524C64.4249 11.3273 65.3134 11.085 66.3232 11.085C66.8482 11.085 67.2521 11.1657 67.6156 11.3273Z" fill="black" fill-opacity="0.6"/>
<path d="M70.5235 8.41936C70.0388 7.93469 69.7965 7.32886 69.7965 6.56146C69.7965 5.79407 70.0388 5.14784 70.5235 4.70356C71.0082 4.21889 71.614 3.97656 72.4218 3.97656C73.1892 3.97656 73.8354 4.21889 74.3201 4.70356C74.8048 5.18823 75.0471 5.79407 75.0471 6.56146C75.0471 7.32886 74.8048 7.97508 74.3201 8.41936C73.8354 8.90403 73.2296 9.14636 72.4218 9.14636C71.6544 9.10597 71.0082 8.86364 70.5235 8.41936ZM70.3216 11.4082H74.522V26.9176H70.3216V11.4082Z" fill="black" fill-opacity="0.6"/>
<path d="M100.492 12.4992C101.381 13.509 101.825 14.9226 101.825 16.7805V26.9585H97.6245V17.871C97.6245 16.8613 97.4226 16.1342 97.0591 15.6496C96.6956 15.1649 96.0897 14.9226 95.2416 14.9226C94.3126 14.9226 93.5452 15.2053 93.0202 15.7707C92.4951 16.3362 92.2124 17.144 92.2124 18.1537V26.9585H88.0119V17.871C88.0119 16.8613 87.81 16.1342 87.4465 15.6496C87.083 15.1649 86.4771 14.9226 85.629 14.9226C84.7 14.9226 83.973 15.2053 83.4479 15.7707C82.9229 16.3362 82.6402 17.144 82.6402 18.1537V26.9585H78.4397V11.4491H82.519V13.7109C82.9229 12.9031 83.5691 12.2569 84.3769 11.7722C85.1847 11.2876 86.154 11.0452 87.1637 11.0452C88.2139 11.0452 89.1428 11.2876 89.9506 11.7722C90.718 12.2569 91.3238 12.9839 91.6469 13.9128C92.0508 13.0243 92.6971 12.2973 93.5856 11.8126C94.4742 11.2876 95.5243 11.0452 96.6552 11.0452C98.3919 10.9644 99.644 11.4895 100.492 12.4992Z" fill="black" fill-opacity="0.6"/>
<path d="M119.879 20.4553H109.095C109.297 21.5458 109.741 22.3536 110.428 22.8787C111.115 23.4037 112.003 23.6864 113.134 23.6864C114.709 23.6864 116.042 23.121 117.011 22.0305L119.394 24.575C118.667 25.4636 117.779 26.1502 116.688 26.6348C115.598 27.1195 114.346 27.3618 112.972 27.3618C111.357 27.3618 109.943 27.0387 108.732 26.3521C107.52 25.6655 106.551 24.7366 105.904 23.5249C105.218 22.3132 104.895 20.8592 104.895 19.2436C104.895 17.6685 105.218 16.2548 105.864 14.9624C106.51 13.7103 107.399 12.741 108.57 12.014C109.741 11.3274 111.074 10.9639 112.609 10.9639C114.063 10.9639 115.396 11.287 116.486 11.9332C117.617 12.5794 118.465 13.5084 119.071 14.7201C119.677 15.9317 120 17.305 120 18.9205C119.96 19.4052 119.919 19.9302 119.879 20.4553ZM110.266 15.4067C109.661 15.9317 109.297 16.6587 109.095 17.6281H115.8C115.719 16.6587 115.396 15.8913 114.871 15.4067C114.305 14.8816 113.578 14.6393 112.609 14.6393C111.64 14.6393 110.832 14.8816 110.266 15.4067Z" fill="black" fill-opacity="0.6"/>
</g>
</svg>
